<svg width="1502" height="1231" viewBox="0 0 1502 1231" fill="none" xmlns="http://www.w3.org/2000/svg">
<g opacity="0.7">
<path fill-rule="evenodd" clip-rule="evenodd" d="M1158.39 596.783C1167.8 585.736 1174.17 572.197 1173.11 557.027C1170.04 513.316 1109.2 522.932 1097.37 544.993C1085.54 567.055 1086.94 623.015 1102.24 626.958C1108.34 628.53 1121.33 624.679 1134.55 616.706L1126.25 675.44H1175.26L1158.39 596.783Z" fill="#915B3C"/>
<path fill-rule="evenodd" clip-rule="evenodd" d="M1162.16 606.623C1168.31 579.251 1185.83 560.593 1183.16 548.359C1181.37 540.203 1176.62 535.131 1168.89 533.143C1164.89 516.974 1152 510.096 1130.22 512.511C1097.55 516.132 1077.61 529.703 1086.22 559.565C1094.14 559.565 1103.69 556.701 1116.91 561.607C1121.1 563.164 1124.1 567.991 1125.91 576.089H1131.88C1137.67 566.479 1143.39 562.948 1149.02 565.495C1154.65 568.042 1155.93 574.229 1152.86 584.056L1155.8 606.623H1162.16Z" fill="#191847"/>
<path fill-rule="evenodd" clip-rule="evenodd" d="M1312.08 930.752H1077.24C1059.2 930.752 1044.57 945.384 1044.57 963.432V1151.34C1044.57 1169.39 1059.2 1184.02 1077.24 1184.02H1312.08C1330.13 1184.02 1344.76 1169.39 1344.76 1151.34V963.432C1344.76 945.384 1330.13 930.752 1312.08 930.752ZM1279.41 987.942C1283.92 987.942 1287.58 991.6 1287.58 996.112V1118.66C1287.58 1123.17 1283.92 1126.83 1279.41 1126.83H1109.92C1105.4 1126.83 1101.75 1123.17 1101.75 1118.66V996.112C1101.75 991.6 1105.4 987.942 1109.92 987.942H1279.41Z" fill="#C5CFD6"/>
<path fill-rule="evenodd" clip-rule="evenodd" d="M842.075 1173.81C882.337 1124.64 909.579 1088.18 923.802 1064.44C948.154 1023.8 968.085 987.633 974.375 973.818C989.374 940.874 939.845 925.448 928.636 940.814C911.67 964.071 875.437 1037.25 819.937 1160.37L842.075 1173.81Z" fill="#B28B67"/>
<path fill-rule="evenodd" clip-rule="evenodd" d="M924.579 1159.51L999.509 970.861C1015.53 936.471 938.142 913.865 926.365 929.87C899.625 966.205 836.072 1109.54 828.105 1120.37L924.579 1159.51Z" fill="#2F3676"/>
<path fill-rule="evenodd" clip-rule="evenodd" d="M1124.14 1121.68C1109.55 1100.38 1056.46 1028.74 1027.54 999.097C1019.23 990.578 1011.12 982.403 1003.45 974.784C980.66 952.138 935.267 990.202 958.019 1010.83C1014.68 1062.2 1097.35 1131.54 1104.26 1137.73C1113.94 1146.39 1133.32 1135.06 1124.14 1121.68Z" fill="#915B3C"/>
<path fill-rule="evenodd" clip-rule="evenodd" d="M1120.73 1112.06C1125.76 1116.2 1129.03 1119.58 1130.54 1122.2C1132.38 1125.39 1134.54 1130.35 1137.01 1137.09C1133.31 1139.22 1100.06 1158.42 1037.26 1194.69C1029.72 1187.62 1028.55 1182.12 1033.74 1178.22C1038.93 1174.31 1043.21 1171.01 1046.59 1168.33L1081.02 1120.88C1081.68 1119.97 1082.96 1119.77 1083.87 1120.43C1083.88 1120.44 1083.9 1120.45 1083.92 1120.46L1091.07 1125.97C1097.63 1125.4 1102.53 1124.18 1105.76 1122.31C1108.39 1120.8 1111.4 1117.64 1114.8 1112.85C1116.11 1111.01 1118.66 1110.58 1120.5 1111.88C1120.58 1111.94 1120.66 1112 1120.73 1112.06Z" fill="#E4E4E4"/>
<path fill-rule="evenodd" clip-rule="evenodd" d="M859.394 1166.46C861.679 1172.56 862.821 1177.13 862.821 1180.15C862.821 1183.84 862.208 1189.21 860.981 1196.28C856.709 1196.28 818.316 1196.28 745.802 1196.28C742.809 1186.38 744.537 1181.04 750.986 1180.25C757.434 1179.46 762.791 1178.75 767.056 1178.11L820.59 1154.24C821.62 1153.78 822.828 1154.24 823.287 1155.27C823.295 1155.29 823.302 1155.31 823.31 1155.33L826.751 1163.68C832.721 1166.46 837.572 1167.86 841.304 1167.86C844.336 1167.86 848.524 1166.63 853.867 1164.18C855.918 1163.24 858.342 1164.14 859.282 1166.19C859.323 1166.28 859.36 1166.37 859.394 1166.46Z" fill="#E4E4E4"/>
<path fill-rule="evenodd" clip-rule="evenodd" d="M1026.47 980.283C1088.75 970.136 1130.46 963.197 1151.61 959.466C1211.9 948.834 1229.48 916.384 1219.09 845.585H1108.01C1093.31 849.831 1031.89 876.09 923.742 924.363C904.285 934.024 907.908 962.508 911.465 971.893C911.61 972.276 944.411 1028.49 1009.87 1140.54L1100.74 1082.64L1026.3 987.106C1024.33 983.146 1024.39 980.872 1026.47 980.283Z" fill="#5C63AB"/>
<path fill-rule="evenodd" clip-rule="evenodd" d="M1018.47 818.847L953.328 866.689C935.661 871.458 920.901 877.39 909.047 884.487C906.247 887.039 902.863 892.207 914.475 891.313C926.088 890.42 938.342 890.003 939.944 893.965C941.547 897.926 934.52 902.664 937.758 908.009C939.918 911.572 950.119 902.637 968.362 881.203L1032.87 854.449L1018.47 818.847ZM1268.57 820.498L1225.9 820.666C1252.25 905.743 1266.47 950.885 1268.57 956.091C1273.3 967.803 1263.3 985.642 1259.02 995.228C1272.95 1001.46 1271.46 978.377 1289.03 986.552C1305.07 994.014 1317.27 1007.53 1335.79 996.101C1338.07 994.695 1340.57 989.402 1334.54 985.266C1319.51 974.961 1297.86 956.926 1294.93 950.99C1290.95 942.895 1282.16 899.397 1268.57 820.498Z" fill="#915B3C"/>
<path fill-rule="evenodd" clip-rule="evenodd" d="M1147.3 641.396L1129.64 638.366C1064.12 694.975 1037.21 803.727 956.902 861.338L976.231 885.302C1115.55 868.049 1150.08 735.397 1147.3 641.396Z" fill="#E87613"/>
<path fill-rule="evenodd" clip-rule="evenodd" d="M1224.27 863.35C1153.47 863.35 1101.39 863.35 1068.03 863.35C1060.89 863.35 1062.23 853.039 1063.27 847.835C1075.18 787.785 1121.68 723.054 1121.68 637.573L1166.74 630.505C1204.02 690.469 1216.91 764.298 1224.27 863.35Z" fill="#DDE3E9"/>
<path fill-rule="evenodd" clip-rule="evenodd" d="M1223.02 689.447C1229.56 687.565 1234.75 683.176 1238.57 676.28C1255.04 646.551 1249.09 630.183 1231.49 624.803C1213.88 619.423 1198.19 630.505 1170.14 630.505C1168.61 630.505 1167.21 630.601 1165.95 630.792L1151.84 631.597C1111.36 768.813 1100.19 860.362 1118.34 906.242H1241.32C1248.61 923.236 1255.58 937.533 1262.24 949.135H1295.75C1298.9 847.147 1274.66 760.584 1223.02 689.447Z" fill="#FF9B21"/>
<path fill-rule="evenodd" clip-rule="evenodd" d="M1214.54 835.771C1210.67 868.138 1204.39 891.628 1195.68 906.243H1241.32C1232.82 886.42 1223.9 862.93 1214.54 835.771Z" fill="black" fill-opacity="0.1"/>
</g>
<ellipse cx="41.5" cy="122.921" rx="41.5" ry="40.9211" fill="#FFBD17"/>
<circle cx="96" cy="151" r="13" fill="#2CFF8D"/>
<circle opacity="0.3" cx="1206" cy="39" r="39" fill="#7D30EE"/>
</svg>
