<svg width="60" height="60" viewBox="0 0 60 60" fill="none" xmlns="http://www.w3.org/2000/svg">
<path d="M30 55C43.8071 55 55 43.8071 55 30C55 16.1929 43.8071 5 30 5C16.1929 5 5 16.1929 5 30C5 43.8071 16.1929 55 30 55Z" fill="#0077B5"/>
<path fill-rule="evenodd" clip-rule="evenodd" d="M23.4683 17.8549C23.4683 19.4113 22.2833 20.6708 20.4302 20.6708C18.6492 20.6708 17.4641 19.4113 17.5008 17.8549C17.4641 16.2229 18.6491 15 20.4657 15C22.2833 15 23.4328 16.2229 23.4683 17.8549ZM17.6498 41.0239V22.8953H23.2838V41.0226L17.6498 41.0239Z" fill="white"/>
<path fill-rule="evenodd" clip-rule="evenodd" d="M27.7991 28.6811C27.7991 26.42 27.7246 24.4922 27.6501 22.8981H32.5439L32.804 25.3816H32.9153C33.6568 24.2321 35.5099 22.4912 38.5126 22.4912C42.219 22.4912 44.9994 24.9381 44.9994 30.2741V41.0266H39.3653V30.9801C39.3653 28.6433 38.5505 27.0502 36.5116 27.0502C34.9541 27.0502 34.028 28.1252 33.6579 29.1625C33.5089 29.5338 33.4355 30.0518 33.4355 30.5721V41.0266H27.8014V28.6811H27.7991Z" fill="white"/>
</svg>
