<svg width="85" height="85" viewBox="0 0 85 85" fill="none" xmlns="http://www.w3.org/2000/svg">
<path d="M42.5 79.6875C63.0381 79.6875 79.6875 63.0381 79.6875 42.5C79.6875 21.9619 63.0381 5.3125 42.5 5.3125C21.9619 5.3125 5.3125 21.9619 5.3125 42.5C5.3125 63.0381 21.9619 79.6875 42.5 79.6875Z" fill="url(#paint0_linear_610_367)"/>
<path d="M61.0582 27.1171C61.3891 24.9776 59.355 23.2888 57.4526 24.1241L19.5628 40.7596C18.1986 41.3586 18.2984 43.4252 19.7133 43.8757L27.527 46.364C29.0185 46.839 30.6332 46.5933 31.9356 45.6936L49.5523 33.5227C50.0836 33.1556 50.6626 33.911 50.2087 34.3788L37.5278 47.4528C36.2976 48.7212 36.5418 50.8704 38.0216 51.7982L52.2192 60.7014C53.8116 61.6999 55.8601 60.6969 56.1579 58.7725L61.0582 27.1171Z" fill="white"/>
<defs>
<linearGradient id="paint0_linear_610_367" x1="42.5" y1="5.3125" x2="42.5" y2="79.6875" gradientUnits="userSpaceOnUse">
<stop stop-color="#37BBFE"/>
<stop offset="1" stop-color="#007DBB"/>
</linearGradient>
</defs>
</svg>
