<svg width="85" height="85" viewBox="0 0 85 85" fill="none" xmlns="http://www.w3.org/2000/svg">
<g clip-path="url(#clip0_610_363)">
<path d="M72.25 0H12.75C5.70837 0 0 5.70837 0 12.75V72.25C0 79.2916 5.70837 85 12.75 85H72.25C79.2916 85 85 79.2916 85 72.25V12.75C85 5.70837 79.2916 0 72.25 0Z" fill="#25D366"/>
<path d="M20.4198 65.2441L22.744 54.4531C19.7567 49.7413 18.5914 44.1014 19.4666 38.5915C20.3418 33.0816 23.1975 28.0804 27.4978 24.5263C31.7982 20.9721 37.2476 19.1092 42.8238 19.2872C48.3999 19.4651 53.7195 21.6716 57.7845 25.4927C61.8495 29.3138 64.3805 34.4869 64.9027 40.0413C65.4248 45.5958 63.9023 51.15 60.6207 55.6617C57.339 60.1735 52.5239 63.3327 47.0786 64.5468C41.6334 65.7609 35.9322 64.9463 31.0448 62.2558L20.4198 65.2441Z" fill="#25D366" stroke="white" stroke-width="6"/>
<path d="M51.1328 45.3223C50.6348 44.9902 50.1367 44.8242 49.6387 45.4883L47.6465 48.1445C47.1485 48.4766 46.8164 48.6426 46.1524 48.3105C43.6621 46.9824 40.1758 45.4883 37.1875 40.5078C37.0215 39.8437 37.3535 39.5117 37.6856 39.1797L39.1797 36.8555C39.5117 36.5234 39.3457 36.1914 39.1797 35.8594L37.1875 31.0449C36.6895 29.7168 36.1914 29.8828 35.6934 29.8828H34.3653C34.0332 29.8828 33.3692 30.0488 32.7051 30.7129C29.0528 34.3652 30.5469 39.5117 33.2031 42.832C33.7012 43.4961 37.0215 49.4726 44.1602 52.6269C49.4727 54.9512 50.6348 54.6191 52.1289 54.2871C53.9551 54.1211 55.7813 52.6269 56.6114 51.1328C56.7774 50.6348 57.6074 48.4766 56.9434 48.1445" fill="white"/>
</g>
<defs>
<clipPath id="clip0_610_363">
<rect width="85" height="85" fill="white"/>
</clipPath>
</defs>
</svg>
