<svg width="1144" height="782" viewBox="0 0 1144 782" fill="none" xmlns="http://www.w3.org/2000/svg">
<circle cx="1067.5" cy="236.5" r="76.5" fill="#17FF4A" fill-opacity="0.39"/>
<circle cx="26" cy="203" r="26" fill="#FF1725" fill-opacity="0.39"/>
<path d="M188.372 518.336C190.13 523.549 188.241 528.763 187.46 533.911C186.809 538.277 187.33 542.122 189.739 545.902C191.042 547.922 192.865 550.007 193.386 552.418C194.038 555.416 191.823 557.501 190.846 560.108C189.87 562.714 190.521 566.429 193.777 566.885C193.647 566.364 193.517 565.777 193.321 565.256C191.823 566.885 191.367 569.296 192.735 571.186C193.777 572.62 195.991 572.75 196.577 574.64C197.164 576.53 196.187 578.941 195.861 580.766C194.624 588.39 199.248 595.037 204.718 599.794C211.1 605.399 218.134 609.96 223.865 616.282C229.856 622.863 234.806 630.423 238.518 638.503C239.039 639.611 240.732 638.634 240.211 637.526C233.959 624.036 224.516 612.567 212.663 603.574C206.086 598.621 197.88 592.756 197.554 583.633C197.489 580.7 198.922 577.768 198.531 574.835C198.401 573.923 198.14 573.011 197.489 572.294C196.056 570.6 191.823 569.557 194.624 566.559C195.08 566.103 194.949 565.061 194.168 564.93C189.739 564.279 193.777 558.674 194.493 556.915C195.08 555.611 195.405 554.308 195.275 552.874C194.949 549.16 191.954 546.358 190.325 543.164C186.157 535.084 192.996 526.091 190.13 517.684C189.87 516.642 187.981 517.163 188.372 518.336Z" fill="#E8E8E8"/>
<path d="M189.739 520.225C234.61 540.101 245.616 592.821 253.431 636.222C253.627 637.46 255.516 636.939 255.32 635.701C248.873 599.664 241.383 560.824 213.966 534.301C207.193 527.72 199.378 522.311 190.716 518.531C189.609 518.01 188.567 519.704 189.739 520.225Z" fill="#E8E8E8"/>
<path d="M192.996 524.787C216.962 555.22 234.024 590.866 242.751 628.597C243.012 629.836 244.9 629.314 244.64 628.076C235.848 589.954 218.59 554.112 194.428 523.353C193.582 522.376 192.214 523.809 192.996 524.787Z" fill="#E8E8E8"/>
<path d="M198.271 557.435C212.403 563.887 223.735 575.226 230.247 589.367C230.768 590.54 232.461 589.497 231.94 588.39C225.363 573.988 213.705 562.323 199.313 555.741C198.075 555.22 197.098 556.914 198.271 557.435Z" fill="#E8E8E8"/>
<path d="M246.919 593.147C242.621 574.575 257.339 559.586 266.457 545.25C270.885 538.277 274.597 530.782 277.398 523.028C278.765 519.248 279.742 515.338 280.914 511.493C282.021 507.844 283.519 503.738 287.492 502.63C287.101 502.5 286.776 502.305 286.385 502.174C287.883 505.107 288.664 508.3 288.339 511.623C288.143 513.709 286.58 515.99 286.776 517.945C286.906 519.118 287.948 520.942 288.339 522.115C288.794 523.614 289.12 525.113 289.315 526.612C289.576 528.436 289.706 530.261 289.706 532.086C289.706 533.454 288.794 537.169 289.25 538.212C288.729 537.104 287.297 537.951 287.492 538.993C289.315 550.072 291.92 561.346 292.572 572.489C293.223 583.698 288.729 593.212 283.063 602.596C273.034 619.214 262.354 636.939 264.373 657.206C264.503 658.444 266.457 658.444 266.326 657.206C264.112 634.984 277.398 617.128 287.622 598.751C292.441 590.084 295.242 581.221 294.46 571.251C293.614 560.303 291.139 549.355 289.381 538.472C288.794 538.733 288.208 538.993 287.622 539.254C287.687 539.384 287.752 539.515 287.818 539.645C287.948 539.971 288.339 540.101 288.664 540.101C291.074 540.166 291.334 537.43 291.53 535.605C292.051 531.108 291.66 526.547 290.488 522.246C290.032 520.617 288.925 518.792 289.12 517.098C289.315 515.534 290.162 513.904 290.357 512.21C290.813 508.365 289.967 504.651 288.208 501.262C288.013 500.871 287.492 500.676 287.101 500.806C280.393 502.761 279.351 510.711 277.658 516.446C274.727 526.286 270.429 535.67 264.894 544.337C255.385 559.26 240.667 574.444 245.161 593.733C245.356 594.906 247.245 594.385 246.919 593.147Z" fill="#E8E8E8"/>
<path d="M283.129 518.531C282.021 538.211 274.076 556.393 267.629 574.705C261.116 593.277 257.013 612.436 255.581 632.052C255.516 633.29 257.469 633.29 257.534 632.052C259.032 611.785 263.526 592.104 270.299 573.01C276.616 555.22 283.975 537.56 285.082 518.531C285.147 517.293 283.194 517.293 283.129 518.531Z" fill="#E8E8E8"/>
<path d="M255.516 563.301C256.427 572.228 258.837 580.83 262.81 588.911C263.396 590.019 265.024 589.041 264.503 587.934C260.726 580.179 258.316 571.903 257.469 563.366C257.339 562.062 255.385 562.062 255.516 563.301Z" fill="#E8E8E8"/>
<path d="M270.82 572.62C277.593 568.514 283.324 563.171 287.883 556.719C288.599 555.676 286.906 554.699 286.189 555.742C281.826 561.932 276.29 567.015 269.778 570.925C268.736 571.577 269.713 573.272 270.82 572.62Z" fill="#E8E8E8"/>
<path d="M236.043 633.29C240.211 641.045 242.816 649.386 243.793 658.119C243.923 659.357 245.877 659.357 245.747 658.119C244.705 649.06 242.035 640.393 237.736 632.313C237.15 631.205 235.457 632.182 236.043 633.29Z" fill="#E8E8E8"/>
<path d="M252.39 632.052C254.018 640.067 254.929 648.213 255.06 656.424C255.06 657.662 257.013 657.662 257.013 656.424C256.883 648.017 255.971 639.741 254.278 631.53C254.018 630.292 252.129 630.813 252.39 632.052Z" fill="#E8E8E8"/>
<path d="M906.635 576.92C905.854 579.527 904.617 582.329 904.226 585.066C904.03 586.174 903.965 587.217 904.682 588.129C905.593 589.237 907.156 589.367 908.459 589.563C911.39 590.084 914.32 590.54 917.251 590.931C927.801 592.365 938.482 592.951 949.097 593.147C960.103 593.342 971.109 593.016 982.18 592.625C985.046 592.495 988.302 592.821 991.037 592.3C991.819 592.169 992.666 592.169 993.187 591.452C994.359 589.954 992.731 588.65 991.233 589.432C990.907 589.628 990.647 590.149 990.777 590.54C990.842 590.605 990.842 590.736 990.907 590.801C991.363 591.974 993.252 591.452 992.796 590.279C992.731 590.214 992.731 590.084 992.666 590.019C992.535 590.41 992.34 590.736 992.21 591.127C991.819 590.866 991.428 590.605 991.037 590.345C990.386 590.345 989.8 590.41 989.149 590.41C988.107 590.475 987.065 590.475 985.958 590.54C984.069 590.605 982.115 590.67 980.227 590.736C976.384 590.866 972.607 590.996 968.765 591.061C960.689 591.257 952.679 591.322 944.603 591.061C936.788 590.866 928.973 590.345 921.223 589.432C917.121 588.976 913.018 588.39 908.915 587.673C906.245 587.217 905.919 586.044 906.635 583.502C907.222 581.482 907.873 579.397 908.459 577.376C908.85 576.203 906.961 575.682 906.635 576.92Z" fill="#E8E8E8"/>
<path d="M908.459 577.963C909.501 574.77 916.665 575.552 919.204 575.487C922.786 575.357 926.433 575.226 930.015 575.161C937.635 575.031 945.254 575.031 952.939 575.291C960.363 575.487 967.788 575.878 975.147 576.464C978.664 576.725 982.506 576.66 985.892 577.442C989.409 578.289 989.409 579.983 989.93 582.786C990.321 584.806 990.712 586.826 991.102 588.846C991.363 590.084 993.252 589.563 992.991 588.325C992.535 585.914 992.014 583.437 991.558 581.026C991.298 579.592 991.103 577.963 989.995 576.855C987.911 574.77 983.418 575.291 980.748 575.031C971.239 574.184 961.731 573.597 952.158 573.336C942.845 573.076 933.467 573.076 924.154 573.402C920.051 573.532 915.818 573.467 911.715 573.988C909.371 574.314 907.221 575.096 906.44 577.507C906.179 578.68 908.068 579.136 908.459 577.963Z" fill="#E8E8E8"/>
<path d="M910.347 588.781C913.213 604.551 915.232 620.452 916.469 636.418C916.534 637.004 916.86 637.33 917.446 637.395C936.593 639.155 955.805 639.611 974.951 638.764C976.189 638.699 976.189 636.744 974.951 636.809C955.74 637.656 936.528 637.2 917.446 635.44C917.772 635.766 918.097 636.092 918.423 636.418C917.186 620.257 915.167 604.226 912.236 588.26C911.976 587.022 910.087 587.543 910.347 588.781Z" fill="#E8E8E8"/>
<path d="M985.567 592.69C982.962 607.548 979.771 622.341 975.928 636.939C975.603 638.177 977.491 638.698 977.817 637.46C981.594 622.863 984.85 608.07 987.455 593.212C987.651 591.974 985.762 591.452 985.567 592.69Z" fill="#E8E8E8"/>
<path d="M866.453 471.546C870.751 483.211 873.877 495.202 875.896 507.388C875.961 507.714 876.287 507.974 876.548 508.04C878.632 508.626 880.716 509.213 882.734 509.799C882.539 509.408 882.279 509.017 882.083 508.626C880.911 513.97 880.39 519.77 885.405 523.158C887.033 524.266 888.726 524.918 889.117 527.068C889.377 528.632 889.247 530.196 889.573 531.76C890.224 535.084 891.591 538.277 893.545 541.014C897.909 547.074 904.747 549.681 910.868 553.526C917.641 557.827 922.917 564.018 926.433 571.186C926.954 572.294 928.648 571.316 928.127 570.209C925.261 564.344 921.223 559.065 916.144 554.96C910.543 550.398 903.314 548.052 898.039 543.164C895.238 540.623 893.22 537.234 892.047 533.65C891.461 531.825 891.136 529.936 891.07 528.046C891.005 527.003 891.201 526.156 890.745 525.244C889.638 522.767 886.447 522.05 884.753 520.095C882.213 517.163 883.19 512.601 883.907 509.147C884.037 508.626 883.776 508.105 883.255 507.974C881.953 507.583 879.348 507.388 878.306 506.606C877.003 505.628 877.069 503.022 876.808 501.458C876.157 498.004 875.375 494.615 874.529 491.161C872.835 484.319 870.751 477.672 868.342 471.09C867.951 469.852 866.062 470.373 866.453 471.546Z" fill="#E8E8E8"/>
<path d="M868.537 471.611C890.94 478.193 910.152 493.507 921.614 513.839C922.2 514.947 923.893 513.969 923.307 512.861C911.65 492.073 891.982 476.433 869.058 469.721C867.821 469.33 867.3 471.22 868.537 471.611Z" fill="#E8E8E8"/>
<path d="M919.27 511.037C931.318 528.957 939.393 549.224 943.04 570.534C943.236 571.772 945.124 571.251 944.929 570.012C941.282 548.573 933.076 528.11 920.963 510.059C920.246 509.016 918.553 509.994 919.27 511.037Z" fill="#E8E8E8"/>
<path d="M872.836 477.085C897.909 502.5 918.749 531.76 934.704 563.692C935.29 564.8 936.984 563.822 936.398 562.714C920.442 530.652 899.406 501.262 874.268 475.717C873.291 474.87 871.924 476.238 872.836 477.085Z" fill="#E8E8E8"/>
<path d="M877.459 499.894C894.066 509.929 908.654 522.963 920.442 538.407C921.223 539.385 922.917 538.407 922.135 537.43C910.152 521.659 895.369 508.365 878.436 498.199C877.394 497.548 876.417 499.242 877.459 499.894Z" fill="#E8E8E8"/>
<path d="M894.001 482.69C898.234 491.878 900.904 501.653 902.077 511.754C902.207 512.992 904.161 512.992 904.03 511.754C902.858 501.327 900.058 491.292 895.694 481.712C895.108 480.539 893.48 481.517 894.001 482.69Z" fill="#E8E8E8"/>
<path d="M939.458 544.728C937.635 501.327 978.859 473.566 997.615 438.702C997.029 438.506 996.378 438.376 995.791 438.181C995.791 443.655 995.726 449.129 995.726 454.603C995.726 457.144 995.726 459.686 995.661 462.162C995.661 464.769 996.638 473.631 991.428 472.002C990.647 471.741 989.865 472.719 990.321 473.436C993.056 477.606 993.707 482.755 991.949 487.512C991.102 489.793 990.191 490.64 989.93 493.116C989.67 495.853 989.409 498.655 989.149 501.392C988.628 506.931 988.042 512.405 987.521 517.945C987 523.158 987.065 528.893 985.567 533.91C984.134 538.863 980.031 541.665 975.733 544.076C971.956 546.292 968.178 548.443 964.727 551.114C958.214 556.263 953.2 563.496 953.395 572.033C953.395 573.271 955.349 573.271 955.349 572.033C955.088 560.694 964.206 553.069 973.128 547.791C976.71 545.64 980.617 543.816 983.613 540.818C986.544 537.886 987.651 534.301 988.172 530.261C989.605 518.922 990.386 507.518 991.493 496.179C991.754 493.507 992.21 491.487 993.317 489.076C994.033 487.447 994.489 485.687 994.749 483.928C995.205 479.822 994.228 475.847 991.949 472.393C991.558 472.849 991.233 473.371 990.842 473.827C997.224 475.912 997.485 467.375 997.485 463.4C997.55 454.994 997.55 446.587 997.615 438.115C997.615 437.138 996.247 436.747 995.791 437.594C976.84 472.784 935.486 500.675 937.374 544.598C937.505 545.966 939.458 545.966 939.458 544.728Z" fill="#E8E8E8"/>
<path d="M992.079 456.297C982.18 472.98 972.281 489.662 963.685 507.062C959.517 515.468 955.74 524.005 952.353 532.737C949.032 541.47 946.427 550.528 946.948 559.912C947.013 561.15 948.967 561.15 948.901 559.912C948.315 550.267 951.181 541.014 954.632 532.086C958.084 523.158 962.057 514.36 966.355 505.824C974.691 489.206 984.199 473.175 993.642 457.209C994.424 456.167 992.731 455.189 992.079 456.297Z" fill="#E8E8E8"/>
<path d="M953.851 504.586C952.288 511.428 951.962 518.336 952.939 525.244C953.135 526.482 955.023 525.961 954.828 524.722C953.916 518.141 954.242 511.559 955.74 505.107C956 503.869 954.111 503.348 953.851 504.586Z" fill="#E8E8E8"/>
<path d="M973.063 471.155C972.086 476.76 972.216 482.364 973.454 487.903C973.714 489.141 975.603 488.62 975.342 487.382C974.17 482.168 974.04 476.955 974.951 471.677C975.147 470.438 973.323 469.917 973.063 471.155Z" fill="#E8E8E8"/>
<path d="M990.386 517.554C1001 505.042 1010.12 491.422 1017.61 476.825C1017.02 476.76 1016.44 476.695 1015.85 476.564C1019.37 488.75 1018.65 501.328 1015.98 513.579C1014.68 519.509 1012.98 525.374 1011.16 531.174C1010.31 533.846 1009.4 536.518 1008.49 539.255C1007.51 542.187 1006.6 546.358 1003.02 547.009C1002.56 547.075 1002.3 547.531 1002.3 547.922C1002.17 551.245 1001.98 554.829 1000.48 557.892C998.592 561.802 994.815 562.845 990.907 563.953C985.046 565.582 979.054 567.276 974.951 572.033C974.105 572.946 975.538 574.379 976.319 573.402C979.185 570.078 982.962 568.384 987.065 567.081C990.516 565.973 994.424 565.517 997.615 563.692C1003.22 560.564 1003.93 553.656 1004.19 547.922C1003.93 548.248 1003.74 548.573 1003.48 548.834C1008.56 547.987 1009.73 541.47 1011.1 537.43C1013.44 530.522 1015.65 523.549 1017.28 516.446C1020.41 503.152 1021.52 489.272 1017.67 475.978C1017.48 475.196 1016.31 475 1015.92 475.717C1008.56 490.184 999.569 503.674 989.019 516.055C988.172 517.163 989.54 518.532 990.386 517.554Z" fill="#E8E8E8"/>
<path d="M1012.01 496.896C1006.99 512.861 998.592 527.719 987.455 540.166C978.403 550.202 964.531 558.934 963.034 573.597C962.903 574.835 964.857 574.835 964.987 573.597C965.769 565.581 970.979 559.39 976.449 553.916C981.855 548.508 987.455 543.425 992.275 537.494C1001.98 525.634 1009.27 512.014 1013.83 497.417C1014.29 496.244 1012.4 495.723 1012.01 496.896Z" fill="#E8E8E8"/>
<path d="M791.559 172.17C787.587 205.144 775.474 236.815 756.522 264.12C755.806 265.163 757.499 266.14 758.215 265.098C777.362 237.532 789.475 205.47 793.513 172.17C793.643 170.867 791.69 170.932 791.559 172.17Z" fill="#E8E8E8"/>
<path d="M791.885 172.692C820.54 176.341 849.521 176.471 878.176 173.148C879.413 173.018 879.413 171.063 878.176 171.193C849.521 174.516 820.54 174.386 791.885 170.737C790.648 170.606 790.648 172.561 791.885 172.692Z" fill="#E8E8E8"/>
<path d="M878.241 174.321C885.6 208.729 881.041 245.092 865.541 276.698C864.955 277.806 866.649 278.783 867.235 277.675C882.995 245.613 887.619 208.794 880.129 173.8C879.869 172.562 877.98 173.083 878.241 174.321Z" fill="#E8E8E8"/>
<path d="M757.76 265.88C792.211 278.653 829.462 278.066 865.672 277.35C866.909 277.35 866.909 275.395 865.672 275.395C829.658 276.111 792.601 276.698 758.281 263.99C757.108 263.534 756.587 265.424 757.76 265.88Z" fill="#E8E8E8"/>
<path d="M883.581 214.202C899.993 207.555 917.316 203.254 934.965 201.56C934.639 201.234 934.313 200.908 933.988 200.583C934.509 225.737 944.733 250.109 962.252 268.16C963.099 269.073 964.531 267.704 963.62 266.792C946.427 249.132 936.463 225.281 935.942 200.583C935.942 200.061 935.486 199.54 934.965 199.605C917.12 201.365 899.667 205.6 883.06 212.313C881.888 212.834 882.409 214.724 883.581 214.202Z" fill="#E8E8E8"/>
<path d="M847.958 278.718C850.563 287.646 853.363 296.574 856.684 305.241C859.355 312.214 862.806 318.991 868.602 323.879C869.579 324.661 870.947 323.292 869.97 322.51C863.913 317.362 860.527 310.194 857.857 302.83C854.926 294.749 852.321 286.538 849.846 278.262C849.456 277.024 847.632 277.545 847.958 278.718Z" fill="#E8E8E8"/>
<path d="M870.751 324.009C900.188 303.612 931.513 286.017 964.141 271.289C965.313 270.768 964.271 269.073 963.164 269.595C930.471 284.257 899.211 301.917 869.775 322.314C868.733 323.031 869.709 324.726 870.751 324.009Z" fill="#E8E8E8"/>
<path d="M797.746 181.163C821.843 184.161 846.069 186.312 870.296 187.55C871.533 187.615 871.533 185.66 870.296 185.595C846.004 184.357 821.843 182.206 797.746 179.208C796.509 179.078 796.509 181.033 797.746 181.163Z" fill="#E8E8E8"/>
<path d="M797.225 190.808C800.547 192.828 805.04 192.502 808.752 192.763C814.093 193.154 819.433 193.545 824.773 193.936C826.01 194.001 826.01 192.046 824.773 191.981C820.279 191.655 815.786 191.329 811.292 191.003C807.254 190.677 801.719 191.264 798.202 189.113C797.16 188.462 796.183 190.156 797.225 190.808Z" fill="#E8E8E8"/>
<path d="M793.839 200.518C805.952 201.365 818.065 202.212 830.113 203.06C841.706 203.842 853.754 205.666 865.346 204.493C866.583 204.363 866.583 202.408 865.346 202.538C853.754 203.711 841.706 201.952 830.113 201.105C818 200.257 805.887 199.41 793.839 198.563C792.601 198.498 792.601 200.453 793.839 200.518Z" fill="#E8E8E8"/>
<path d="M791.69 216.94C802.24 220.459 813.376 220.654 824.448 220.524C836.626 220.459 848.739 220.329 860.918 220.198C862.155 220.198 862.155 218.243 860.918 218.243C849.13 218.308 837.407 218.439 825.62 218.504C814.353 218.569 803.021 218.569 792.211 214.985C790.973 214.659 790.452 216.549 791.69 216.94Z" fill="#E8E8E8"/>
<path d="M778.274 246.46C778.274 248.545 778.078 250.761 778.274 252.911C778.404 253.954 778.86 254.997 780.097 255.062C781.595 255.127 782.768 253.433 783.679 252.52C785.177 250.956 786.545 249.327 787.912 247.698C788.694 246.721 787.326 245.352 786.545 246.33C784.917 248.415 783.158 250.37 781.27 252.195C781.074 252.39 780.879 252.586 780.618 252.781C780.228 253.172 780.097 253.107 780.228 252.52C780.032 252.064 780.228 251.152 780.228 250.696C780.228 249.262 780.228 247.894 780.228 246.46C780.228 245.222 778.274 245.222 778.274 246.46Z" fill="#E8E8E8"/>
<path d="M794.034 231.472C815.004 235.969 836.496 237.533 857.857 236.164C859.094 236.099 859.094 234.144 857.857 234.209C836.626 235.578 815.33 234.014 794.555 229.582C793.318 229.322 792.797 231.211 794.034 231.472Z" fill="#E8E8E8"/>
<path d="M871.207 300.288C897.453 290.708 922.526 278.196 945.906 262.882C946.948 262.165 945.971 260.471 944.929 261.188C921.679 276.437 896.801 288.949 870.686 298.398C869.514 298.854 870.035 300.744 871.207 300.288Z" fill="#E8E8E8"/>
<path d="M865.151 288.102C884.688 282.433 903.77 275.525 922.461 267.509C923.633 266.988 922.591 265.359 921.484 265.815C902.988 273.831 883.972 280.608 864.63 286.212C863.458 286.603 863.913 288.493 865.151 288.102Z" fill="#E8E8E8"/>
<path d="M873.617 272.461C884.753 267.835 895.89 263.143 907.026 258.516C916.795 254.41 926.824 250.696 935.486 244.44C936.463 243.723 935.551 242.029 934.509 242.745C925.652 249.132 915.297 252.977 905.333 257.147C894.587 261.644 883.842 266.14 873.096 270.637C871.989 271.093 872.51 272.983 873.617 272.461Z" fill="#E8E8E8"/>
<path d="M882.669 252.521C887.489 250.501 892.373 248.546 897.192 246.526C898.364 246.07 897.843 244.18 896.671 244.636C891.852 246.656 886.968 248.611 882.148 250.631C880.976 251.087 881.497 252.977 882.669 252.521Z" fill="#E8E8E8"/>
<path d="M885.339 227.236C891.787 227.432 898.299 224.304 904.226 221.958C910.413 219.481 916.469 216.744 922.396 213.747C923.503 213.16 922.526 211.466 921.419 212.052C915.623 214.985 909.761 217.657 903.705 220.068C898.039 222.349 891.591 225.477 885.339 225.281C884.037 225.216 884.037 227.171 885.339 227.236Z" fill="#E8E8E8"/>
<path d="M804.454 276.894C797.095 299.637 784.786 320.555 768.57 338.15C767.984 338.802 768.375 339.779 769.287 339.845C799.374 340.822 827.248 353.464 854.014 366.237C855.121 366.758 856.163 365.064 854.991 364.543C827.899 351.64 799.765 338.932 769.287 337.89C769.547 338.476 769.743 338.997 770.003 339.584C786.48 321.793 798.919 300.549 806.408 277.48C806.734 276.242 804.845 275.721 804.454 276.894Z" fill="#E8E8E8"/>
<path d="M856.229 365.585C865.02 348.511 874.529 331.828 884.688 315.472C885.339 314.429 883.646 313.386 882.995 314.494C872.835 330.786 863.327 347.534 854.535 364.607C853.949 365.715 855.642 366.758 856.229 365.585Z" fill="#E8E8E8"/>
<path d="M853.363 343.037C854.6 343.037 854.6 341.082 853.363 341.082C852.061 341.082 852.061 343.037 853.363 343.037Z" fill="#E8E8E8"/>
<path d="M785.828 329.027C795.988 328.31 804.584 334.436 813.897 337.499C818.977 339.128 824.252 339.975 829.332 341.669C834.477 343.298 839.231 345.775 843.724 348.837C844.766 349.554 845.743 347.86 844.701 347.143C840.598 344.341 836.17 341.995 831.481 340.366C825.945 338.411 820.019 337.498 814.418 335.674C804.91 332.546 796.248 326.355 785.828 327.137C784.526 327.137 784.526 329.092 785.828 329.027Z" fill="#E8E8E8"/>
<path d="M796.118 320.685C811.357 324.595 825.945 330.655 839.426 338.736C840.533 339.388 841.51 337.693 840.403 337.042C826.792 328.831 812.074 322.705 796.639 318.795C795.402 318.534 794.881 320.359 796.118 320.685Z" fill="#E8E8E8"/>
<path d="M801.068 309.281C807.841 310.714 814.093 313.451 819.824 317.361C820.866 318.078 821.843 316.384 820.801 315.667C814.939 311.692 808.492 308.89 801.589 307.391C800.351 307.13 799.83 309.02 801.068 309.281Z" fill="#E8E8E8"/>
<path d="M805.105 298.854C816.112 302.959 826.987 307.326 837.798 311.952C838.97 312.474 839.947 310.779 838.775 310.258C827.834 305.566 816.763 301.07 805.626 296.964C804.389 296.573 803.933 298.463 805.105 298.854Z" fill="#E8E8E8"/>
<path d="M251.217 198.042C250.175 213.552 249.915 229.192 244.965 244.115C240.341 257.995 232.592 270.703 222.432 281.195C221.585 282.107 222.953 283.475 223.8 282.563C233.959 272.071 241.774 259.429 246.528 245.614C251.803 230.299 252.064 214.073 253.171 198.042C253.236 196.804 251.282 196.804 251.217 198.042Z" fill="#E8E8E8"/>
<path d="M252.585 198.628C278.114 198.302 303.708 198.367 329.237 198.889C335.75 199.019 342.262 199.215 348.709 199.41C352.031 199.54 357.111 198.563 358.869 202.082C360.106 204.558 360.041 208.533 360.432 211.27C362.125 223.261 362.451 235.447 361.539 247.503C360.497 261.188 357.762 274.678 353.529 287.711C353.138 288.884 355.027 289.405 355.417 288.232C363.363 263.795 365.902 237.728 362.516 212.248C362.19 209.576 361.734 206.904 361.279 204.298C360.953 202.408 360.758 199.997 359.064 198.758C357.436 197.52 355.157 197.716 353.268 197.651C349.556 197.52 345.909 197.39 342.197 197.325C328.13 196.934 314.063 196.673 299.996 196.608C284.171 196.478 268.345 196.543 252.585 196.738C251.348 196.738 251.348 198.693 252.585 198.628Z" fill="#E8E8E8"/>
<path d="M222.888 283.605C255.971 292.859 290.944 293.837 324.548 286.603C325.785 286.342 325.264 284.453 324.027 284.713C290.813 291.947 256.167 290.904 223.409 281.716C222.172 281.39 221.651 283.214 222.888 283.605Z" fill="#E8E8E8"/>
<path d="M355.417 203.32C353.919 231.798 346.104 259.624 332.558 284.648C331.972 285.756 333.666 286.734 334.252 285.626C347.928 260.276 355.873 232.124 357.371 203.32C357.436 202.082 355.482 202.082 355.417 203.32Z" fill="#E8E8E8"/>
<path d="M355.417 208.729C357.241 217.396 356.459 226.129 354.961 234.731C353.659 242.225 352.161 249.719 350.468 257.213C347.146 271.876 342.653 286.343 334.056 298.79C333.34 299.832 335.033 300.81 335.75 299.767C344.672 286.864 349.23 271.811 352.617 256.627C356.069 241.117 360.692 224.109 357.306 208.208C357.045 206.97 355.157 207.491 355.417 208.729Z" fill="#E8E8E8"/>
<path d="M356.85 214.985C359.129 244.571 354.31 274.352 342.783 301.722C342.327 302.895 344.216 303.416 344.672 302.243C356.199 274.743 361.083 244.766 358.804 214.985C358.739 213.747 356.785 213.747 356.85 214.985Z" fill="#E8E8E8"/>
<path d="M235.327 299.767C267.954 305.371 301.298 305.176 333.861 299.246C335.098 299.05 334.577 297.16 333.34 297.356C301.168 303.221 268.085 303.416 235.848 297.877C234.61 297.682 234.089 299.572 235.327 299.767Z" fill="#E8E8E8"/>
<path d="M239.625 288.688C238.127 291.164 236.173 293.25 233.829 294.944C232.787 295.661 233.764 297.355 234.806 296.638C237.411 294.749 239.625 292.468 241.253 289.731C241.97 288.623 240.276 287.645 239.625 288.688Z" fill="#E8E8E8"/>
<path d="M244.184 302.96C243.337 304.589 242.36 306.153 241.188 307.586C240.407 308.564 241.774 309.932 242.556 308.955C243.858 307.391 244.965 305.762 245.812 303.937C246.398 302.829 244.77 301.787 244.184 302.96Z" fill="#E8E8E8"/>
<path d="M242.295 310.259C275.053 314.104 308.332 312.018 340.373 304.068C341.611 303.742 341.09 301.852 339.852 302.178C308.006 310.063 274.923 312.084 242.295 308.239C241.058 308.174 241.058 310.129 242.295 310.259Z" fill="#E8E8E8"/>
<path d="M258.251 224.238C286.385 220.394 314.779 222.218 342.978 224.173C344.216 224.238 344.216 222.283 342.978 222.218C314.584 220.263 286.059 218.439 257.73 222.349C256.492 222.479 257.013 224.369 258.251 224.238Z" fill="#E8E8E8"/>
<path d="M250.175 253.434C276.551 253.825 302.861 255.063 329.107 257.148C330.344 257.278 330.344 255.323 329.107 255.193C302.861 253.043 276.551 251.804 250.175 251.479C248.873 251.479 248.873 253.434 250.175 253.434Z" fill="#E8E8E8"/>
<path d="M242.295 268.552C271.471 269.921 300.647 271.354 329.823 272.723C331.061 272.788 331.061 270.833 329.823 270.768C300.647 269.399 271.471 267.966 242.295 266.597C241.058 266.532 241.058 268.487 242.295 268.552Z" fill="#E8E8E8"/>
<path d="M266.391 241.963C260.856 255.127 255.581 268.356 250.696 281.78C250.24 282.953 252.129 283.475 252.585 282.302C257.469 269.073 262.614 255.974 268.085 243.006C268.541 241.833 266.847 240.79 266.391 241.963Z" fill="#E8E8E8"/>
<path d="M288.469 244.245C282.021 257.278 276.681 270.703 272.057 284.388C271.667 285.561 273.555 286.082 273.946 284.909C278.505 271.354 283.78 258.06 290.162 245.223C290.748 244.115 289.055 243.137 288.469 244.245Z" fill="#E8E8E8"/>
<path d="M313.216 245.809C305.792 257.865 300.256 270.963 296.805 284.714C296.479 285.952 298.368 286.473 298.693 285.235C302.08 271.615 307.55 258.712 314.91 246.787C315.561 245.744 313.868 244.766 313.216 245.809Z" fill="#E8E8E8"/>
<path d="M332.754 246.721C326.632 258.581 321.422 270.898 317.124 283.605C316.733 284.778 318.622 285.299 319.012 284.126C323.246 271.614 328.39 259.493 334.447 247.763C334.968 246.59 333.34 245.613 332.754 246.721Z" fill="#E8E8E8"/>
<path d="M247.44 258.19C250.306 259.493 252.715 261.253 254.864 263.534C255.711 264.446 257.079 263.077 256.232 262.165C254.018 259.754 251.413 257.864 248.417 256.496C247.245 256.04 246.268 257.669 247.44 258.19Z" fill="#E8E8E8"/>
<path d="M256.297 254.867C252.129 257.344 248.482 260.472 245.421 264.186C244.64 265.164 246.007 266.532 246.789 265.555C249.785 261.905 253.236 258.908 257.274 256.562C258.381 255.91 257.404 254.216 256.297 254.867Z" fill="#E8E8E8"/>
<path d="M282.412 275.329C286.059 277.48 289.185 280.152 291.92 283.345C292.702 284.322 294.135 282.889 293.288 281.976C290.488 278.653 287.166 275.851 283.389 273.635C282.347 272.983 281.37 274.678 282.412 275.329Z" fill="#E8E8E8"/>
<path d="M293.483 272.592C289.315 275.72 285.473 279.239 281.956 283.084C281.11 283.997 282.477 285.43 283.324 284.453C286.71 280.673 290.423 277.284 294.46 274.222C295.437 273.57 294.46 271.876 293.483 272.592Z" fill="#E8E8E8"/>
<path d="M264.242 255.258C267.629 258.386 271.015 261.449 274.402 264.577C275.314 265.424 276.681 264.056 275.769 263.209C272.383 260.081 268.996 257.018 265.61 253.89C264.698 252.977 263.331 254.346 264.242 255.258Z" fill="#E8E8E8"/>
<path d="M275.379 253.693C270.625 256.43 266.457 259.949 263.07 264.25C262.289 265.228 263.656 266.596 264.438 265.619C267.759 261.448 271.732 258.06 276.356 255.388C277.463 254.736 276.421 253.042 275.379 253.693Z" fill="#E8E8E8"/>
<path d="M288.86 268.291C284.171 265.75 283.519 259.429 288.013 256.17C291.399 253.759 298.303 251.739 300.908 256.17C303.187 260.146 300.452 264.968 297.196 267.379C292.116 271.094 288.534 266.988 286.189 262.752C285.603 261.644 283.91 262.622 284.496 263.73C287.492 269.139 292.311 273.374 298.303 269.008C302.731 265.815 305.792 259.038 302.015 254.215C298.107 249.263 289.185 251.869 285.408 255.779C281.175 260.211 282.738 267.053 287.883 269.855C288.99 270.572 289.967 268.878 288.86 268.291Z" fill="#E8E8E8"/>
<path d="M261.247 203.19C260.009 207.686 259.618 212.248 260.27 216.94C260.4 218.178 262.419 218.178 262.223 216.94C261.637 212.443 261.898 208.077 263.135 203.711C263.461 202.538 261.572 202.017 261.247 203.19Z" fill="#E8E8E8"/>
<path d="M262.484 204.363C286.971 201.626 311.653 200.974 336.271 202.473C335.945 202.147 335.619 201.821 335.294 201.495C335.619 205.34 335.554 209.12 334.903 212.899C334.708 214.138 336.596 214.659 336.792 213.421C337.443 209.446 337.638 205.536 337.247 201.495C337.182 200.974 336.857 200.583 336.271 200.518C311.653 199.019 286.971 199.671 262.484 202.408C261.247 202.538 261.247 204.493 262.484 204.363Z" fill="#E8E8E8"/>
<path d="M264.373 216.289C287.818 215.767 311.263 215.246 334.708 214.725C335.945 214.725 335.945 212.77 334.708 212.77C311.263 213.291 287.818 213.812 264.373 214.334C263.135 214.399 263.135 216.354 264.373 216.289Z" fill="#E8E8E8"/>
<path d="M657.207 601.293C693.807 601.293 730.342 601.293 766.942 601.293C770.72 601.293 770.72 595.428 766.942 595.428C730.342 595.428 693.807 595.428 657.207 595.428C653.429 595.428 653.429 601.293 657.207 601.293Z" fill="#161616"/>
<path d="M780.228 601.293C788.108 601.293 795.923 601.293 803.803 601.293C807.58 601.293 807.58 595.428 803.803 595.428C795.923 595.428 788.108 595.428 780.228 595.428C776.45 595.428 776.45 601.293 780.228 601.293Z" fill="#161616"/>
<path d="M827.443 597.187C832.197 597.187 837.017 597.187 841.771 597.187C845.548 597.187 845.548 591.322 841.771 591.322C837.017 591.322 832.197 591.322 827.443 591.322C823.666 591.322 823.666 597.187 827.443 597.187Z" fill="#161616"/>
<path d="M781.27 650.558C825.034 650.558 868.798 650.558 912.562 650.558C916.339 650.558 916.339 644.693 912.562 644.693C868.798 644.693 825.034 644.693 781.27 644.693C777.492 644.693 777.492 650.558 781.27 650.558Z" fill="#161616"/>
<path d="M920.768 650.558C931.709 650.558 942.65 650.558 953.591 650.558C957.368 650.558 957.368 644.693 953.591 644.693C942.65 644.693 931.709 644.693 920.768 644.693C916.99 644.693 916.99 650.558 920.768 650.558Z" fill="#161616"/>
<path d="M974.105 649.582C990.191 649.582 1006.21 649.582 1022.3 649.582C1026.07 649.582 1026.07 643.717 1022.3 643.717C1006.21 643.717 990.191 643.717 974.105 643.717C970.328 643.717 970.328 649.582 974.105 649.582Z" fill="#161616"/>
<path d="M1041.77 646.453C1045.16 646.453 1048.61 646.453 1051.99 646.453C1055.77 646.453 1055.77 640.588 1051.99 640.588C1048.61 640.588 1045.16 640.588 1041.77 640.588C1037.99 640.588 1037.99 646.453 1041.77 646.453Z" fill="#161616"/>
<path d="M151.12 663.07C203.871 661.767 256.623 660.79 309.374 660.203C324.483 660.008 339.657 659.877 354.766 659.747C356.003 659.747 356.003 657.792 354.766 657.792C302.015 658.183 249.264 658.965 196.512 660.073C181.403 660.399 166.229 660.724 151.12 661.115C149.818 661.181 149.818 663.136 151.12 663.07Z" fill="#161616"/>
<path d="M293.549 673.954C333.535 672.259 373.587 672.52 413.509 674.736C414.746 674.801 414.746 672.846 413.509 672.781C373.587 670.565 333.535 670.304 293.549 671.999C292.246 672.064 292.246 674.019 293.549 673.954Z" fill="#161616"/>
<path d="M925.782 592.561C923.242 598.556 919.921 604.095 915.818 609.178C915.037 610.156 916.404 611.524 917.186 610.547C921.549 605.203 925.001 599.403 927.671 593.082C928.127 591.909 926.238 591.388 925.782 592.561Z" fill="#E8E8E8"/>
<path d="M938.091 591.127C932.946 602.531 925.587 612.762 916.404 621.299C915.492 622.146 916.86 623.515 917.772 622.668C927.085 614.066 934.509 603.704 939.784 592.104C940.305 590.997 938.612 590.019 938.091 591.127Z" fill="#E8E8E8"/>
<path d="M950.855 591.778C942.715 608.331 931.057 622.798 916.534 634.202C915.557 634.984 916.925 636.352 917.902 635.57C932.49 624.036 944.278 609.373 952.483 592.691C953.069 591.648 951.376 590.671 950.855 591.778Z" fill="#E8E8E8"/>
<path d="M962.773 592.3C953.916 608.396 942.91 623.058 929.885 636.027C928.973 636.939 930.406 638.307 931.253 637.395C944.343 624.362 955.544 609.504 964.401 593.277C965.118 592.169 963.424 591.192 962.773 592.3Z" fill="#E8E8E8"/>
<path d="M973.389 591.844C964.922 608.266 954.437 623.515 941.998 637.2C941.152 638.112 942.519 639.546 943.366 638.568C955.87 624.753 966.55 609.439 975.082 592.821C975.668 591.713 973.975 590.736 973.389 591.844Z" fill="#E8E8E8"/>
<path d="M981.985 591.909C974.235 608.461 964.141 623.84 951.962 637.46C951.116 638.373 952.483 639.806 953.33 638.829C965.639 625.013 975.863 609.569 983.678 592.821C984.264 591.778 982.571 590.736 981.985 591.909Z" fill="#E8E8E8"/>
<path d="M983.027 604.551C976.97 616.672 969.546 628.011 960.884 638.437C960.103 639.415 961.471 640.783 962.252 639.806C971.044 629.249 978.598 617.78 984.72 605.528C985.306 604.42 983.613 603.443 983.027 604.551Z" fill="#E8E8E8"/>
<path d="M413.965 44.7695C413.965 55.8478 413.965 66.9262 413.965 77.9393C413.965 79.1775 415.918 79.1775 415.918 77.9393C415.918 66.861 415.918 55.7827 415.918 44.7695C415.918 43.4662 413.965 43.4662 413.965 44.7695Z" fill="#E8E8E8"/>
<path d="M378.406 79.7636C411.034 79.7636 443.597 79.7636 476.224 79.7636C477.462 79.7636 477.462 77.8086 476.224 77.8086C443.597 77.8086 411.034 77.8086 378.406 77.8086C377.104 77.8086 377.104 79.7636 378.406 79.7636Z" fill="#E8E8E8"/>
<path d="M447.178 82.1747C447.178 92.4059 447.178 102.572 447.178 112.803C447.178 114.041 449.132 114.041 449.132 112.803C449.132 102.572 449.132 92.4059 449.132 82.1747C449.132 80.9366 447.178 80.9366 447.178 82.1747Z" fill="#E8E8E8"/>
<path d="M396.251 116.388C428.032 116.388 459.748 116.388 491.529 116.388C492.766 116.388 492.766 114.433 491.529 114.433C459.748 114.433 428.032 114.433 396.251 114.433C395.013 114.433 395.013 116.388 396.251 116.388Z" fill="#E8E8E8"/>
<path d="M394.427 117.105C394.427 124.794 394.427 132.419 394.427 140.108C394.427 141.347 396.381 141.347 396.381 140.108C396.381 132.419 396.381 124.794 396.381 117.105C396.381 115.866 394.427 115.801 394.427 117.105Z" fill="#E8E8E8"/>
<path d="M866.974 388.459C886.707 388.459 906.375 388.459 926.108 388.459C927.345 388.459 927.345 386.504 926.108 386.504C906.375 386.504 886.707 386.504 866.974 386.504C865.672 386.504 865.672 388.459 866.974 388.459Z" fill="#E8E8E8"/>
<path d="M898.234 389.24C898.234 396.995 898.234 404.75 898.234 412.57C898.234 413.808 900.188 413.808 900.188 412.57C900.188 404.815 900.188 397.06 900.188 389.24C900.188 388.002 898.234 388.002 898.234 389.24Z" fill="#E8E8E8"/>
<path d="M862.481 413.548C885.209 413.548 907.873 413.548 930.601 413.548C931.839 413.548 931.839 411.593 930.601 411.593C907.873 411.593 885.209 411.593 862.481 411.593C861.243 411.593 861.243 413.548 862.481 413.548Z" fill="#E8E8E8"/>
<path d="M880.325 413.482C880.325 420.064 880.325 426.646 880.325 433.228C880.325 434.466 882.279 434.466 882.279 433.228C882.279 426.646 882.279 420.064 882.279 413.482C882.279 412.179 880.325 412.179 880.325 413.482Z" fill="#E8E8E8"/>
<path d="M923.307 414.33C923.307 420.912 923.307 427.494 923.307 434.075C923.307 435.314 925.261 435.314 925.261 434.075C925.261 427.494 925.261 420.912 925.261 414.33C925.261 413.092 923.307 413.092 923.307 414.33Z" fill="#E8E8E8"/>
<path d="M287.297 602.075C316.863 602.075 346.43 602.075 375.997 602.075C377.234 602.075 377.234 600.12 375.997 600.12C346.43 600.12 316.863 600.12 287.297 600.12C285.994 600.12 285.994 602.075 287.297 602.075Z" fill="#E8E8E8"/>
<path d="M151.12 603.313C169.746 603.313 188.372 603.313 206.997 603.313C208.235 603.313 208.235 601.358 206.997 601.358C188.372 601.358 169.746 601.358 151.12 601.358C149.818 601.358 149.818 603.313 151.12 603.313Z" fill="#E8E8E8"/>
<path d="M268.671 448.607C298.238 448.607 327.804 448.607 357.371 448.607C358.608 448.607 358.608 446.652 357.371 446.652C327.804 446.652 298.238 446.652 268.671 446.652C267.368 446.652 267.368 448.607 268.671 448.607Z" fill="#E8E8E8"/>
<path d="M318.231 449.39C318.231 456.167 318.231 463.009 318.231 469.787C318.231 471.025 320.185 471.025 320.185 469.787C320.185 463.009 320.185 456.167 320.185 449.39C320.185 448.151 318.231 448.151 318.231 449.39Z" fill="#E8E8E8"/>
<path d="M301.494 470.764C324.548 470.764 347.602 470.764 370.657 470.764C371.894 470.764 371.894 468.809 370.657 468.809C347.602 468.809 324.548 468.809 301.494 468.809C300.191 468.809 300.191 470.764 301.494 470.764Z" fill="#E8E8E8"/>
<path d="M353.724 471.546C353.724 478.91 353.724 486.339 353.724 493.702C353.724 494.941 355.678 494.941 355.678 493.702C355.678 486.339 355.678 478.91 355.678 471.546C355.678 470.308 353.724 470.308 353.724 471.546Z" fill="#E8E8E8"/>
<path d="M832.197 609.048C857.271 609.048 882.279 609.048 907.352 609.048C908.589 609.048 908.589 607.093 907.352 607.093C882.279 607.093 857.271 607.093 832.197 607.093C830.895 607.093 830.895 609.048 832.197 609.048Z" fill="#E8E8E8"/>
<path d="M993.056 601.944C1019.69 601.944 1046.26 601.944 1072.9 601.944C1074.14 601.944 1074.14 599.989 1072.9 599.989C1046.26 599.989 1019.69 599.989 993.056 599.989C991.819 599.989 991.819 601.944 993.056 601.944Z" fill="#E8E8E8"/>
<path d="M737.245 416.545C737.245 429.057 737.245 441.634 737.245 454.146C737.245 455.384 739.199 455.384 739.199 454.146C739.199 441.634 739.199 429.057 739.199 416.545C739.199 415.242 737.245 415.242 737.245 416.545Z" fill="#E8E8E8"/>
<path d="M739.394 435.118C751.117 435.118 762.904 435.118 774.627 435.118C775.864 435.118 775.864 433.163 774.627 433.163C762.904 433.163 751.117 433.163 739.394 433.163C738.157 433.163 738.157 435.118 739.394 435.118Z" fill="#E8E8E8"/>
<path d="M772.478 421.237C772.478 432.967 772.478 444.762 772.478 456.492C772.478 457.731 774.432 457.731 774.432 456.492C774.432 444.762 774.432 432.967 774.432 421.237C774.432 419.934 772.478 419.934 772.478 421.237Z" fill="#E8E8E8"/>
<path d="M750.01 459.816C768.375 459.816 786.805 459.816 805.171 459.816C806.408 459.816 806.408 457.861 805.171 457.861C786.805 457.861 768.375 457.861 750.01 457.861C748.707 457.861 748.707 459.816 750.01 459.816Z" fill="#E8E8E8"/>
<path d="M787.782 462.357C787.782 471.35 787.782 480.343 787.782 489.402C787.782 490.64 789.736 490.64 789.736 489.402C789.736 480.409 789.736 471.416 789.736 462.357C789.736 461.054 787.782 461.054 787.782 462.357Z" fill="#E8E8E8"/>
<path d="M639.167 94.3612C639.167 114.758 639.167 135.156 639.167 155.553C639.167 156.791 641.121 156.791 641.121 155.553C641.121 135.156 641.121 114.758 641.121 94.3612C641.121 93.1231 639.167 93.1231 639.167 94.3612Z" fill="#E8E8E8"/>
<path d="M641.186 94.2314C673.227 94.2314 705.269 94.2314 737.245 94.2314C738.483 94.2314 738.483 92.2764 737.245 92.2764C705.204 92.2764 673.162 92.2764 641.186 92.2764C639.948 92.2764 639.948 94.2314 641.186 94.2314Z" fill="#E8E8E8"/>
<path d="M736.399 94.0351C736.399 114.237 736.399 134.438 736.399 154.575C736.399 155.813 738.352 155.813 738.352 154.575C738.352 134.373 738.352 114.172 738.352 94.0351C738.352 92.7969 736.399 92.7969 736.399 94.0351Z" fill="#E8E8E8"/>
<path d="M640.99 157.182C673.358 157.182 705.79 157.182 738.157 157.182C739.394 157.182 739.394 155.227 738.157 155.227C705.79 155.227 673.358 155.227 640.99 155.227C639.753 155.227 639.753 157.182 640.99 157.182Z" fill="#E8E8E8"/>
<path d="M682.736 92.211C682.41 90.4515 682.345 88.692 682.671 86.9325C682.996 85.3685 683.778 82.2405 685.601 84.1955C686.513 85.173 686.578 87.3235 686.838 88.5617C687.164 90.1908 687.49 91.8852 687.815 93.5144C688.076 94.7525 689.965 94.2312 689.704 92.993C689.118 90.1257 688.857 86.9325 687.75 84.1955C687.164 82.7618 686.057 81.0675 684.299 81.1327C682.345 81.1978 681.563 83.2832 681.108 84.9124C680.326 87.4539 680.326 90.0605 680.847 92.602C681.042 93.9705 682.931 93.4492 682.736 92.211Z" fill="#E8E8E8"/>
<path d="M644.833 101.399C644.833 117.235 644.833 133.07 644.833 148.906C644.833 150.144 646.787 150.144 646.787 148.906C646.787 133.07 646.787 117.235 646.787 101.399C646.787 100.096 644.833 100.096 644.833 101.399Z" fill="#E8E8E8"/>
<path d="M646.331 101.269C674.465 101.269 702.599 101.269 730.667 101.269C731.905 101.269 731.905 99.3145 730.667 99.3145C702.533 99.3145 674.399 99.3145 646.331 99.3145C645.093 99.3145 645.093 101.269 646.331 101.269Z" fill="#E8E8E8"/>
<path d="M730.798 99.7704C730.798 116.649 730.798 133.527 730.798 150.405C730.798 151.643 732.752 151.643 732.752 150.405C732.752 133.527 732.752 116.649 732.752 99.7704C732.752 98.5323 730.798 98.5323 730.798 99.7704Z" fill="#E8E8E8"/>
<path d="M647.373 150.34C675.311 150.34 703.25 150.34 731.189 150.34C732.426 150.34 732.426 148.385 731.189 148.385C703.25 148.385 675.311 148.385 647.373 148.385C646.135 148.385 646.135 150.34 647.373 150.34Z" fill="#E8E8E8"/>
<path d="M646.266 133.331C659.03 129.878 671.795 126.88 684.885 130.594C695.695 133.722 705.594 139.522 716.796 141.412C718.033 141.608 718.554 139.718 717.317 139.522C705.399 137.502 694.979 131.051 683.322 128.183C670.622 125.055 658.053 128.118 645.81 131.442C644.507 131.767 645.028 133.657 646.266 133.331Z" fill="#E8E8E8"/>
<path d="M691.072 133.201C703.12 131.833 715.103 127.075 727.281 129.617C728.518 129.878 729.039 127.988 727.802 127.727C715.363 125.12 703.315 129.812 691.072 131.181C689.834 131.376 689.834 133.397 691.072 133.201Z" fill="#E8E8E8"/>
<path d="M693.156 119.32C691.658 117.886 691.527 115.345 693.09 113.911C694.784 112.282 697.845 112.738 699.147 114.628C700.515 116.518 700.189 119.385 698.431 120.884C696.282 122.709 693.416 121.275 691.918 119.385C691.202 118.408 689.443 119.385 690.225 120.363C692.309 123.165 696.151 124.99 699.277 122.709C702.208 120.558 702.664 116.062 700.45 113.26C698.496 110.783 694.458 110.262 691.983 112.282C689.378 114.367 689.313 118.538 691.723 120.819C692.7 121.536 694.067 120.167 693.156 119.32Z" fill="#E8E8E8"/>
<path d="M770.72 554.112C772.804 549.811 776.255 544.532 781.856 542.968C790.452 540.557 796.574 549.159 809.404 555.415C832.588 566.754 852.777 558.282 854.666 564.604C856.164 569.621 844.116 577.767 836.301 581.677C820.605 589.497 790.973 595.818 777.297 579.071C775.278 576.594 769.678 568.839 770.72 554.112Z" fill="#161616" stroke="#161616" stroke-width="3" stroke-miterlimit="10"/>
<path d="M753.006 562.584C750.205 559.912 748.968 556.523 748.447 554.047C753.331 537.69 763.491 525.243 775.343 523.875C782.963 523.028 790.452 526.807 796.314 529.805C805.887 534.627 806.082 537.82 815.33 543.555C830.895 553.265 841.966 551.505 842.878 556.654C843.725 561.476 834.998 568.123 826.466 571.121C809.339 577.116 803.933 564.669 777.297 565.842C767.854 566.298 759.062 568.318 753.006 562.584Z" fill="#161616" stroke="#161616" stroke-width="3" stroke-miterlimit="10"/>
<path d="M635.52 456.231C636.822 464.312 638.841 477.411 640.925 493.572C648.871 554.307 645.679 563.17 655.188 575.812C677.135 605.007 726.044 600.054 729.886 599.598C757.76 596.405 776.646 581.742 784.2 575.161C779.902 567.666 775.604 560.237 771.306 552.743C749.814 552.939 728.323 553.199 706.767 553.395C711.391 536.712 716.796 508.691 712.172 474.608C708.655 448.542 700.58 427.949 693.807 414.134C676.093 415.437 655.644 418.37 633.371 424.3C622.625 427.167 612.661 430.425 603.478 433.814C603.023 446.131 602.436 463.66 602.111 484.774C601.004 564.669 605.562 581.091 617.024 589.432C622.625 593.472 632.394 593.798 651.671 594.189C685.21 594.906 713.605 586.109 746.753 575.812C754.243 573.466 760.299 571.446 764.012 570.208C762.123 555.285 760.169 540.427 758.281 525.504C745.06 529.088 731.254 532.476 716.926 535.735C703.185 538.798 689.834 541.535 676.874 543.881" fill="#5222D0"/>
<path d="M628.421 466.528C635.194 469.07 636.367 477.606 637.018 483.862C637.93 492.269 638.451 500.675 638.972 509.147C640.014 525.634 641.121 542.187 645.224 558.218C645.549 559.456 647.438 558.934 647.112 557.696C642.423 539.384 641.707 520.486 640.469 501.783C639.948 493.768 639.753 485.492 638.06 477.606C636.888 472.132 634.478 466.789 628.942 464.703C627.77 464.247 627.249 466.137 628.421 466.528Z" fill="#281472"/>
<path d="M659.356 579.266C664.37 583.633 669.255 588.716 674.856 592.43C680.261 596.014 686.773 597.318 693.091 598.491C694.328 598.751 694.849 596.861 693.611 596.601C687.49 595.428 681.173 594.255 675.832 590.736C670.427 587.152 665.673 582.199 660.723 577.898C659.812 577.051 658.379 578.484 659.356 579.266Z" fill="#281472"/>
<path d="M707.874 546.683C714.972 546.813 721.876 548.117 728.519 550.528C729.691 550.984 730.212 549.094 729.039 548.638C722.201 546.162 715.103 544.858 707.874 544.728C706.571 544.663 706.571 546.618 707.874 546.683Z" fill="#281472"/>
<path opacity="0.58" d="M603.023 478.453C603.413 472.393 607.581 466.984 613.182 464.508C619.043 461.966 626.337 463.66 630.831 467.245C638.646 473.37 637.995 484.905 638.32 498.85C638.906 524.331 639.623 554.894 654.602 575.291C658.053 579.983 664.305 586.956 675.637 592.951C669.776 595.753 659.291 599.794 646.07 599.077C640.339 598.751 624.905 597.773 613.833 586.5C608.428 581.026 603.739 572.684 602.306 532.476C601.85 518.726 601.72 500.284 603.023 478.453Z" fill="#474747"/>
<path opacity="0.59" d="M709.567 537.885C725.783 533.714 741.999 529.544 758.215 525.373C759.192 534.366 760.104 543.424 761.081 552.417C753.722 550.397 745.386 548.507 736.333 547.008C725.848 545.314 716.21 544.467 707.613 544.141C708.265 542.056 708.916 539.97 709.567 537.885Z" fill="#474747"/>
<path d="M607.516 272.396C607.321 267.835 607.842 262.817 610.838 261.123C621.583 255.127 660.854 293.771 680.131 336.586C687.685 353.399 696.933 381.485 694.914 419.999C665.087 425.473 635.325 431.012 605.497 436.486C600.418 427.949 591.821 414.981 578.601 401.296C565.38 387.611 560.366 386.568 554.7 376.598C542.587 355.223 549.099 330.916 550.727 324.79C552.876 316.84 557.565 299.766 573.847 286.538C586.937 275.85 601.004 273.178 607.516 272.396Z" fill="white" stroke="#161616" stroke-width="3" stroke-miterlimit="10"/>
<path opacity="0.36" d="M606.409 282.824C614.159 288.167 641.186 308.043 652.127 346.035C664.045 387.612 648.219 421.563 644.312 429.318C661.375 426.451 678.502 423.649 695.565 420.781C696.607 404.229 696.216 375.034 683.322 341.995C667.171 300.679 640.079 275.981 626.663 265.229C619.89 271.094 613.182 276.959 606.409 282.824Z" fill="#828181"/>
<path opacity="0.4" d="M674.79 327.658C675.897 333.979 677.2 343.233 677.721 354.572C678.633 374.578 679.349 388.85 672.316 403.447C669.58 409.182 663.524 419.348 650.368 428.601C665.282 425.864 680.131 423.193 695.044 420.456C695.761 406.836 695.174 387.807 689.639 366.107C685.536 350.532 680 337.564 674.79 327.658Z" fill="#828181"/>
<path d="M480.978 266.988C485.537 273.635 489.64 279.109 492.961 283.279C501.102 293.641 504.228 296.313 508.591 297.225C512.303 298.007 515.82 297.355 517.904 296.899C523.7 295.726 526.045 293.38 529.887 291.555C534.967 289.209 536.986 290.382 553.462 290.578C565.38 290.708 564.078 290.057 574.758 290.252C584.136 290.448 591.886 291.034 597.357 291.555C595.794 290.317 594.231 289.144 592.733 287.906C590.584 287.32 584.332 285.365 579.447 279.239C575.41 274.156 574.433 268.943 574.107 266.597C575.475 266.206 577.884 265.228 579.447 262.947C582.704 258.125 579.317 251.543 578.145 249.327C576.712 246.59 574.107 241.638 570.525 242.029C567.855 242.289 565.315 245.417 564.534 249.653C558.412 251.608 549.164 253.433 539.591 250.305C521.551 244.375 517.839 225.607 508.005 225.346C501.623 225.281 492.571 232.71 480.978 266.988Z" fill="white"/>
<path d="M479.22 263.99C484.365 275.785 492.18 286.212 502.014 294.488C502.991 295.27 504.358 293.902 503.381 293.12C493.613 284.909 485.993 274.678 480.848 263.013C480.392 261.905 478.699 262.882 479.22 263.99Z" fill="#161616"/>
<path d="M510.48 278.066C511.066 281.39 511.782 284.648 512.629 287.906C513.411 290.708 513.997 294.097 515.429 296.639C517.448 300.223 523.896 295.791 525.98 294.162C526.957 293.38 525.589 292.012 524.612 292.794C523.179 293.902 520.314 296.117 518.36 295.857C516.211 295.596 515.69 291.36 515.169 289.731C513.997 285.756 513.085 281.715 512.369 277.61C512.108 276.307 510.219 276.828 510.48 278.066Z" fill="#161616"/>
<path d="M501.558 278.458C499.083 276.372 495.892 273.7 497.064 270.051C496.543 270.181 495.957 270.312 495.436 270.507C497.976 272.984 499.93 275.916 501.167 279.24C501.362 278.849 501.623 278.458 501.818 278.067C501.428 277.741 500.972 277.415 500.581 277.154C500.255 275.916 498.367 276.437 498.692 277.676C499.148 279.435 500.581 280.217 502.339 279.956C502.86 279.891 503.186 279.174 502.99 278.783C501.623 275.134 499.539 271.941 496.739 269.204C496.218 268.683 495.306 268.943 495.11 269.66C493.743 274.026 496.999 277.415 500.125 279.956C501.102 280.608 502.535 279.24 501.558 278.458Z" fill="#161616"/>
<path d="M495.436 271.224C496.999 273.635 498.562 276.046 500.125 278.457C500.776 279.5 502.47 278.522 501.818 277.48C500.255 275.068 498.692 272.657 497.129 270.246C496.478 269.138 494.785 270.116 495.436 271.224Z" fill="#161616"/>
<path d="M524.873 268.487C523.7 267.118 522.463 265.554 521.877 263.795C521.681 263.273 521.616 262.687 521.616 262.165C521.747 261.318 521.942 261.253 522.333 261.905C522.984 262.165 523.57 263.404 523.961 263.99C524.873 265.359 525.719 266.857 526.175 268.356C526.436 269.203 526.761 269.334 525.849 268.943C525.003 268.552 524.221 267.639 523.635 266.988C522.789 266.01 521.421 267.444 522.268 268.356C523.31 269.529 526.696 272.983 528.064 270.311C529.301 267.9 526.24 263.664 524.873 261.905C523.7 260.406 520.9 257.408 519.793 260.732C518.686 264.055 521.486 267.509 523.44 269.79C524.286 270.833 525.654 269.464 524.873 268.487Z" fill="#161616"/>
<path d="M520.574 262.231C522.072 264.642 523.57 267.053 525.068 269.464C525.719 270.507 527.412 269.53 526.761 268.487C525.394 266.271 524.221 264.056 523.114 261.71C522.593 262.101 522.072 262.492 521.551 262.883C523.049 264.316 524.156 266.011 524.873 267.966C525.328 269.139 527.217 268.617 526.761 267.444C525.915 265.163 524.677 263.208 522.919 261.514C522.072 260.732 520.9 261.71 521.356 262.687C522.463 265.033 523.635 267.314 525.003 269.464C525.589 269.139 526.11 268.813 526.696 268.487C525.198 266.076 523.7 263.665 522.202 261.253C521.616 260.211 519.923 261.188 520.574 262.231Z" fill="#161616"/>
<path d="M572.739 272.593C574.758 277.936 574.563 283.541 571.958 288.624C571.372 289.732 573.065 290.709 573.651 289.601C576.452 284.062 576.842 277.871 574.628 272.071C574.172 270.964 572.284 271.42 572.739 272.593Z" fill="#161616"/>
<path d="M471.405 224.89C470.363 226.324 460.92 239.553 465.934 256.17C470.884 272.592 485.667 278.457 487.361 279.109C486.644 275.069 485.472 265.098 490.291 254.02C496.022 240.661 506.572 234.405 509.959 232.58C512.108 235.708 520.249 246.786 535.748 251.153C549.62 254.997 561.082 251.153 564.859 249.719C565.576 248.546 568.311 244.506 571.763 244.636C576.712 244.831 581.596 253.824 578.666 259.95C576.842 263.795 572.544 265.098 571.372 265.424C572.088 268.226 573.586 272.462 576.842 276.698C582.313 283.931 589.477 286.734 593.579 288.363C597.617 289.927 630.636 302.504 650.303 281.781C660.919 270.637 665.998 251.544 659.03 238.445C653.364 227.888 643.4 227.823 616.503 215.897C584.267 201.561 588.695 197.195 569.613 191.134C559.649 187.941 522.984 176.276 494.329 196.217C481.239 205.275 474.596 217.527 471.405 224.89Z" fill="#EC615B"/>
<path d="M457.208 335.543C456.947 331.763 456.817 320.881 463.916 310.91C474.791 295.661 493.547 295.335 496.739 295.27C502.404 295.14 509.894 296.117 527.217 305.632C538.484 311.822 553.918 321.532 570.395 336.716C574.563 336.977 581.466 337.889 588.565 341.995C596.119 346.296 610.121 357.635 607.125 369.821C605.432 376.728 598.464 383.441 591.821 383.115C581.141 382.593 574.237 364.216 572.023 365.324C570.265 366.171 575.605 377.119 573.26 378.618C571.111 379.987 562.645 373.405 558.738 364.477C555.546 357.309 556.067 350.531 556.719 346.687C541.089 339.323 515.299 330.069 483.388 331.698C473.619 332.285 464.892 333.718 457.208 335.543Z" fill="white" stroke="#161616" stroke-width="3" stroke-miterlimit="10"/>
<path opacity="0.34" d="M457.338 334.24C459.683 321.598 465.218 315.798 468.409 313.257C488.403 297.095 526.305 316.58 537.572 322.315C550.857 329.092 560.822 337.368 565.641 341.604C575.279 350.141 572.87 350.662 586.025 363.174C595.077 371.776 601.525 376.664 600.222 380.183C599.115 383.05 593.645 383.311 593.124 383.311C580.424 383.767 571.698 364.087 571.307 363.174C574.433 374.578 573.847 378.032 572.414 378.749C569.679 380.183 561.603 372.623 558.217 363.696C555.546 356.658 556.328 350.076 557.109 346.361C547.406 341.995 535.097 337.629 520.574 334.762C494.459 329.679 472.187 331.634 457.338 334.24Z" fill="#828181"/>
<path d="M403.675 340.887C401.591 352.03 398.986 375.555 409.601 401.231C429.53 449.52 478.96 463.726 485.602 465.485C485.798 473.11 486.058 480.8 486.254 488.424C474.14 494.159 456.231 504.194 438.387 521.203C425.166 533.845 402.112 556.393 393.19 593.342C387.719 615.955 389.348 636.352 392.539 651.732C471.21 653.035 549.816 654.338 628.487 655.642C631.026 640.784 633.827 611.198 621.258 578.289C598.789 519.443 545.061 496.57 534.772 492.399C534.576 482.103 534.316 471.872 534.12 461.575C544.215 459.36 567.595 452.843 587.197 432.055C619.89 397.451 614.94 352.161 614.094 345.514C543.889 343.95 473.75 342.451 403.675 340.887Z" fill="white" stroke="#161616" stroke-width="3" stroke-miterlimit="10"/>
<path d="M416.244 413.287C422.691 416.806 429.595 419.478 436.954 420.52C442.294 421.237 447.374 420.781 452.714 420.194C459.487 419.412 466.195 418.826 472.903 417.653C479.741 416.48 486.253 414.46 493.026 412.961C494.85 412.57 496.543 412.375 498.367 412.766C501.949 413.482 504.033 415.698 506.768 417.783C510.545 420.651 515.429 420.455 519.337 418.109C521.421 416.806 523.31 415.177 525.394 413.939C528.455 412.114 531.841 411.201 535.423 410.941C539.265 410.68 543.173 410.941 546.95 411.658C551.444 412.505 555.416 414.33 559.714 415.698C568.181 418.435 570.786 409.377 577.363 406.314C585.243 402.599 596.119 402.99 604.39 404.75C605.628 405.011 606.149 403.121 604.911 402.86C597.747 401.296 590.714 401.361 583.485 402.599C580.424 403.121 577.494 403.838 574.823 405.467C571.763 407.357 570.004 410.224 567.399 412.57C563.622 415.959 559.259 413.352 555.286 411.853C551.704 410.55 547.927 409.703 544.084 409.246C537.702 408.464 530.929 408.725 525.133 411.853C520.379 414.46 516.276 419.673 510.285 417.457C507.68 416.48 506.051 414.069 503.707 412.7C501.818 411.527 499.539 410.81 497.325 410.615C493.092 410.289 488.728 412.114 484.625 413.156C476.875 415.111 468.93 416.415 460.92 417.262C454.668 417.914 448.22 419.087 441.903 418.891C433.177 418.63 424.841 415.698 417.286 411.527C416.114 410.941 415.137 412.635 416.244 413.287Z" fill="#161616"/>
<path d="M486.579 480.603C487.621 483.08 488.663 485.686 490.421 487.772C491.529 489.14 493.222 490.183 493.938 491.942C494.655 493.767 494.655 496.178 494.915 498.133C495.762 504.845 496.673 511.558 499.474 517.814C499.995 518.987 501.688 517.944 501.167 516.836C498.106 510.124 497.52 502.825 496.543 495.592C496.218 493.246 496.087 490.835 494.394 489.01C491.789 486.143 490.031 483.797 488.468 480.082C488.012 478.909 486.123 479.43 486.579 480.603Z" fill="#161616"/>
<path d="M529.171 486.273C526.305 484.058 524.091 488.163 523.049 490.379C522.007 492.464 521.226 494.615 520.705 496.83C520.119 499.372 520.249 502.304 519.077 504.65C517.969 507.061 516.146 509.082 515.104 511.558C514.127 513.774 513.411 516.12 512.759 518.466C511.262 524.331 510.415 530.391 509.373 536.321C509.178 537.559 511.066 538.081 511.262 536.843C512.825 527.915 513.606 517.944 518.1 509.929C519.142 508.104 520.509 506.54 521.226 504.585C521.747 503.217 521.812 501.783 522.007 500.414C522.203 498.981 525.85 486.143 527.803 487.642C528.715 488.424 530.148 487.055 529.171 486.273Z" fill="#161616"/>
<path d="M508.266 563.04C507.68 561.997 507.093 560.759 507.354 559.586C507.745 557.762 509.764 557.501 510.415 559.261C511.196 561.346 509.959 563.757 508.526 565.126C508.917 565.06 509.308 564.995 509.698 564.995C508.917 564.409 508.135 563.822 507.419 563.301C506.377 562.519 505.465 564.278 506.442 564.995C507.224 565.582 508.005 566.168 508.722 566.689C509.047 566.95 509.633 566.82 509.894 566.559C512.238 564.278 514.387 558.153 510.285 556.328C508.656 555.611 506.833 556.458 505.921 557.957C504.749 559.912 505.53 562.258 506.572 564.083C507.159 565.125 508.852 564.148 508.266 563.04Z" fill="#161616"/>
<path d="M503.121 585.457C502.665 584.545 501.949 583.307 502.144 582.199C502.274 581.547 503.121 580.635 503.772 581.221C504.423 581.743 504.488 583.307 504.293 584.023C504.098 584.675 502.991 585.783 502.404 584.936C501.688 583.958 499.995 584.936 500.711 585.913C501.753 587.412 503.902 587.542 505.27 586.239C506.768 584.805 506.638 581.938 505.531 580.309C504.423 578.68 502.274 578.94 501.102 580.309C499.409 582.134 500.451 584.675 501.428 586.565C502.014 587.542 503.707 586.565 503.121 585.457Z" fill="#161616"/>
<path d="M512.564 593.211C511.717 592.56 512.564 590.409 513.736 591.061C514.257 591.322 514.583 592.104 514.453 592.69C514.257 593.537 513.15 593.407 512.694 592.951C511.782 592.038 510.415 593.472 511.327 594.319C512.694 595.623 515.234 595.623 516.146 593.798C516.862 592.299 516.211 590.409 514.908 589.497C513.476 588.519 511.652 589.106 510.806 590.605C509.959 592.104 510.219 593.928 511.652 594.906C512.564 595.623 513.541 593.928 512.564 593.211Z" fill="#161616"/>
<path d="M448.546 652.839C453.951 648.473 459.357 644.107 464.762 639.741C467.367 637.655 469.842 635.44 472.642 633.615C475.443 631.79 478.504 630.943 481.63 629.77C491.398 625.991 499.995 609.764 511.196 619.93C514.843 623.188 517.839 626.056 522.593 627.62C527.999 629.379 533.339 630.422 538.484 632.963C548.383 637.851 556.458 645.736 561.864 655.316C562.45 656.423 564.143 655.446 563.557 654.338C559.389 646.844 553.658 640.458 546.624 635.505C543.238 633.094 539.526 631.074 535.683 629.51C531.255 627.685 526.631 626.968 522.137 625.339C514.062 622.406 509.894 612.11 500.06 615.108C496.087 616.346 492.896 619.018 489.835 621.755C488.012 623.384 486.188 625.013 484.104 626.316C481.434 628.011 478.373 628.597 475.508 629.835C470.949 631.79 467.172 635.244 463.329 638.307C457.924 642.673 452.519 647.039 447.113 651.406C446.202 652.253 447.569 653.621 448.546 652.839Z" fill="#161616"/>
<path d="M532.948 476.238C532.232 481.517 531.45 486.73 530.734 492.008C530.083 496.766 530.018 502.37 527.868 506.801C528.324 506.671 528.78 506.541 529.236 506.475C527.413 505.237 528.65 499.112 528.65 497.287C528.715 494.094 528.78 490.966 528.845 487.773C528.845 486.534 526.892 486.534 526.892 487.773C526.761 492.399 526.696 497.026 526.566 501.718C526.501 504.064 526.045 506.671 528.194 508.17C528.585 508.43 529.301 508.3 529.562 507.844C531.646 503.543 531.841 498.525 532.492 493.833C533.274 488.164 534.12 482.494 534.902 476.825C534.967 475.521 533.078 475 532.948 476.238Z" fill="#161616"/>
<path d="M485.667 467.962C484.625 473.501 485.407 478.845 487.882 483.863C488.468 484.97 490.096 483.993 489.575 482.885C487.361 478.323 486.644 473.436 487.556 468.483C487.751 467.245 485.863 466.724 485.667 467.962Z" fill="#161616"/>
<path d="M449.849 440.331C461.701 448.998 476.355 452.322 488.728 459.946C489.77 460.598 490.812 458.904 489.705 458.252C477.266 450.628 462.613 447.304 450.826 438.637C449.784 437.855 448.807 439.549 449.849 440.331Z" fill="#161616"/>
<path d="M487.817 450.432C493.678 454.016 497.781 459.49 499.539 466.202C499.865 467.44 501.753 466.919 501.428 465.681C499.604 458.512 495.176 452.582 488.858 448.737C487.751 448.086 486.775 449.78 487.817 450.432Z" fill="#161616"/>
<path d="M521.616 475.065C524.742 466.463 528.845 457.796 536.465 452.322C537.507 451.605 536.53 449.91 535.488 450.627C527.412 456.492 523.049 465.355 519.728 474.543C519.337 475.782 521.226 476.238 521.616 475.065Z" fill="#161616"/>
<path d="M462.874 648.278C469.516 640.979 478.048 635.962 487.621 633.616C488.859 633.355 488.338 631.465 487.1 631.726C477.201 634.072 468.344 639.35 461.506 646.844C460.659 647.887 462.027 649.256 462.874 648.278Z" fill="#161616"/>
<path d="M477.852 642.152C482.541 640.067 487.23 637.982 491.919 635.896C493.092 635.375 492.05 633.681 490.943 634.202C486.254 636.287 481.565 638.373 476.876 640.458C475.768 640.979 476.745 642.674 477.852 642.152Z" fill="#161616"/>
<path d="M516.732 617.845C522.463 623.124 531.711 621.299 536.986 627.034C537.832 627.946 539.2 626.577 538.353 625.665C532.948 619.8 523.831 621.69 518.1 616.477C517.188 615.564 515.82 616.998 516.732 617.845Z" fill="#161616"/>
<path d="M392.604 658.639C454.147 658.639 515.69 658.639 577.298 658.639C594.621 658.639 612.01 658.639 629.333 658.639C636.888 658.639 636.888 646.909 629.333 646.909C567.79 646.909 506.247 646.909 444.639 646.909C427.315 646.909 409.927 646.909 392.604 646.909C385.049 646.909 385.049 658.639 392.604 658.639Z" fill="#161616"/>
<path d="M401.852 344.927C457.338 344.927 512.825 344.927 568.311 344.927C583.941 344.927 599.506 344.927 615.136 344.927C622.69 344.927 622.69 333.197 615.136 333.197C559.649 333.197 504.163 333.197 448.676 333.197C433.046 333.197 417.482 333.197 401.852 333.197C394.297 333.197 394.297 344.927 401.852 344.927Z" fill="#161616"/>
<path d="M385.961 333.197C381.402 333.197 376.844 333.197 372.285 333.197C364.73 333.197 364.73 344.927 372.285 344.927C376.844 344.927 381.402 344.927 385.961 344.927C393.516 344.927 393.516 333.197 385.961 333.197Z" fill="#161616"/>
<path d="M346.691 343.624C348.449 343.624 350.207 343.624 351.966 343.624C355.027 343.624 357.957 340.952 357.827 337.759C357.697 334.565 355.222 331.894 351.966 331.894C350.207 331.894 348.449 331.894 346.691 331.894C343.63 331.894 340.699 334.565 340.829 337.759C340.96 340.887 343.369 343.624 346.691 343.624Z" fill="#161616"/>
<path d="M642.944 657.792C652.192 657.792 661.505 657.792 670.753 657.792C678.307 657.792 678.307 646.062 670.753 646.062C661.505 646.062 652.192 646.062 642.944 646.062C635.39 646.062 635.39 657.792 642.944 657.792Z" fill="#161616"/>
<path d="M690.681 659.095C692.309 659.095 693.937 659.095 695.565 659.095C698.626 659.095 701.557 656.423 701.426 653.23C701.296 650.037 698.821 647.365 695.565 647.365C693.937 647.365 692.309 647.365 690.681 647.365C687.62 647.365 684.689 650.037 684.82 653.23C684.95 656.423 687.359 659.095 690.681 659.095Z" fill="#161616"/>
<path d="M485.602 465.941C485.146 470.438 484.756 474.999 485.667 479.431C486.644 484.123 489.575 487.446 491.724 491.617C494.199 496.309 494.915 501.978 496.087 507.061C497.325 512.47 498.562 517.879 499.799 523.288C500.386 525.764 504.098 524.722 503.577 522.245C502.404 517.032 501.167 511.819 499.995 506.605C498.888 501.783 498.106 496.7 496.283 492.138C494.655 488.033 491.333 484.709 489.966 480.473C488.468 475.781 489.054 470.698 489.51 465.941C489.77 463.465 485.863 463.465 485.602 465.941Z" fill="#161616"/>
<path d="M476.745 463.986C480.327 465.681 483.974 466.202 487.882 465.55C490.356 465.159 489.314 461.379 486.84 461.77C484.039 462.227 481.239 461.836 478.699 460.597C476.42 459.49 474.466 462.878 476.745 463.986Z" fill="#161616"/>
<path d="M525.003 486.469C521.877 488.685 520.314 491.878 519.597 495.527C519.076 498.003 518.946 500.545 518.23 503.021C517.513 505.498 516.341 507.778 515.169 510.124C510.806 518.922 506.442 528.241 507.68 538.276C508.005 540.753 511.913 540.753 511.587 538.276C510.415 528.827 514.453 520.29 518.555 512.079C520.314 508.56 521.942 505.107 522.593 501.262C523.31 497.287 523.375 492.399 526.957 489.858C529.041 488.359 527.087 484.97 525.003 486.469Z" fill="#161616"/>
<path d="M486.97 573.792C489.51 573.792 489.51 569.882 486.97 569.882C484.495 569.882 484.495 573.792 486.97 573.792Z" fill="#161616"/>
<path d="M479.936 606.05C482.476 606.05 482.476 602.14 479.936 602.14C477.397 602.14 477.397 606.05 479.936 606.05Z" fill="#161616"/>
<path d="M500.06 531.304C500.255 532.607 500.451 533.976 500.646 535.279C500.776 536.322 502.144 536.908 503.056 536.648C504.163 536.322 504.554 535.279 504.423 534.236C504.228 532.933 504.033 531.565 503.837 530.261C503.707 529.219 502.339 528.632 501.428 528.893C500.32 529.219 499.93 530.261 500.06 531.304Z" fill="#161616"/>
<path d="M510.219 547.986C510.219 548.117 510.219 548.312 510.219 548.443C510.219 549.485 511.131 550.463 512.173 550.398C513.215 550.332 514.127 549.55 514.127 548.443C514.127 548.312 514.127 548.117 514.127 547.986C514.127 546.944 513.215 545.966 512.173 546.031C511.131 546.097 510.219 546.879 510.219 547.986Z" fill="#161616"/>
<path d="M563.948 416.936C570.2 414.59 575.149 410.029 581.141 407.227C588.5 403.838 596.25 407.943 603.544 405.141C605.888 404.229 604.846 400.449 602.502 401.362C598.529 402.861 594.491 402.013 590.323 401.753C586.872 401.492 583.615 401.948 580.424 403.251C574.172 405.793 569.158 410.746 562.841 413.157C560.626 414.069 561.603 417.849 563.948 416.936Z" fill="#161616"/>
<path d="M575.866 532.346C569.939 534.888 574.954 541.144 577.689 543.881C583.29 549.485 588.304 555.676 592.668 562.258C601.199 575.096 607.126 589.498 610.317 604.551C610.577 605.789 612.466 605.268 612.205 604.03C609.47 591.257 604.781 578.941 598.269 567.602C595.143 562.128 591.561 556.914 587.588 552.027C585.569 549.55 583.485 547.139 581.271 544.793C579.317 542.773 571.502 536.322 576.842 534.041C578.015 533.519 576.973 531.825 575.866 532.346Z" fill="#161616"/>
<path d="M583.094 537.364C602.827 553.786 610.838 578.875 618.067 602.596C618.457 603.769 620.346 603.313 619.955 602.074C612.596 578.028 604.455 552.613 584.462 535.93C583.485 535.148 582.117 536.517 583.094 537.364Z" fill="#161616"/>
<path d="M611.163 611.068C612.401 612.827 613.899 614.913 616.243 615.108C618.067 615.238 620.02 614.196 620.281 612.241C620.476 611.003 618.588 610.481 618.392 611.719C618.197 612.958 616.894 613.414 615.787 613.023C614.485 612.567 613.573 611.198 612.857 610.09C612.14 609.048 610.447 610.025 611.163 611.068Z" fill="#161616"/>
<path d="M615.006 638.567C617.936 639.871 621.583 638.958 623.146 636.026C624.644 633.224 623.472 629.379 620.737 627.815C617.936 626.251 614.094 627.359 612.466 630.096C610.838 632.963 612.01 636.612 614.615 638.372C615.657 639.089 616.634 637.394 615.592 636.678C613.833 635.505 613.052 632.963 614.159 631.073C615.201 629.249 617.871 628.467 619.76 629.509C621.648 630.487 622.43 633.159 621.453 635.048C620.476 637.003 617.871 637.72 615.982 636.873C614.875 636.352 613.833 638.046 615.006 638.567Z" fill="#161616"/>
<path d="M415.528 354.897C416.179 385.07 428.748 414.329 450.239 435.443C451.151 436.356 452.519 434.922 451.607 434.075C430.441 413.287 418.068 384.548 417.481 354.897C417.416 353.659 415.463 353.659 415.528 354.897Z" fill="#161616"/>
<path d="M417.612 354.05C415.919 352.356 413.509 352.421 411.685 353.92C409.276 355.94 409.536 359.589 409.797 362.456C410.448 370.993 412.141 379.4 414.681 387.546C419.761 403.707 428.292 418.695 439.559 431.272C440.405 432.185 441.773 430.816 440.927 429.904C431.744 419.673 424.45 407.943 419.435 395.17C417.026 389.175 415.202 382.919 413.834 376.598C413.118 373.144 412.532 369.69 412.141 366.236C411.946 364.607 411.75 363.043 411.685 361.414C411.62 360.697 411.555 359.98 411.62 359.328C411.685 357.764 413.379 352.551 416.244 355.484C417.156 356.331 418.524 354.897 417.612 354.05Z" fill="#161616"/>
<path opacity="0.25" d="M615.461 345.969C615.527 348.055 559.389 351.443 447.113 356.266C445.16 365.128 443.857 377.249 447.113 390.674C457.533 434.009 504.554 450.692 509.243 452.256C509.829 468.939 510.48 485.687 511.066 502.369C506.052 504.259 499.474 507.126 492.245 511.493C487.621 514.295 476.615 521.463 466.39 533.128C460.594 539.775 441.968 561.15 440.471 593.537C439.559 612.762 445.095 628.271 449.523 637.59C502.405 640.588 555.351 643.651 608.233 646.648C536.204 647.235 464.241 647.886 392.213 648.473C389.934 633.941 387.784 606.114 399.442 574.835C401.591 569.165 419.435 523.418 467.042 497.547C474.596 493.441 481.174 490.77 485.732 489.075C485.537 480.995 485.342 472.979 485.146 464.898C478.569 463.204 468.8 460.076 457.989 454.016C451.672 450.497 409.732 426.124 401.851 378.553C400.614 370.993 399.572 359.068 402.438 344.145C544.41 343.037 615.396 343.623 615.461 345.969Z" fill="#474747"/>
<path opacity="0.3" d="M520.77 344.341C486.97 349.098 453.17 353.855 419.37 358.547C420.282 369.821 423.799 393.085 439.754 416.676C459.487 445.805 486.253 457.796 496.608 461.836C497.194 474.218 497.846 486.6 498.432 498.981C476.354 503.282 461.832 512.275 453.886 518.14C448.611 522.05 400.94 556.98 406.28 607.223C407.192 615.89 410.318 630.748 422.301 647.17C412.011 647.301 401.786 647.431 391.497 647.496C389.413 631.53 387.524 598.621 404.587 564.669C417.612 538.863 436.237 523.028 447.048 514.035C461.571 501.979 475.443 494.159 485.602 489.271C485.928 481.256 486.319 473.24 486.644 465.225C473.684 462.488 447.83 454.994 427.901 431.925C426.469 430.296 421.519 424.431 416.57 415.633C402.112 389.957 401.135 363.109 402.503 345.579C442.034 345.123 481.434 344.732 520.77 344.341Z" fill="#474747"/>
<path d="M484.104 316.384C463.72 331.242 448.025 349.554 449.523 351.379C450.239 352.291 454.212 351.118 468.93 341.669C466.39 343.168 460.399 347.013 457.273 354.507C456.361 356.722 453.365 362.913 456.101 366.954C459.031 371.189 466.781 370.798 471.796 369.104C481.499 365.846 486.123 355.745 486.644 356.136C487.426 356.657 476.615 372.102 478.178 373.34C479.806 374.708 496.739 360.307 509.698 340.105C513.671 333.914 516.406 328.505 518.23 324.53C529.757 324.791 544.019 325.768 560.17 328.44C589.346 333.197 600.483 339.453 620.346 336.195C632.524 334.24 652.257 327.984 652.973 318.73C653.885 307.261 625.361 296.704 619.174 294.423C572.153 277.024 528.064 293.12 520.9 295.857C503.056 302.699 490.747 311.562 484.104 316.384Z" fill="white" stroke="#161616" stroke-width="3" stroke-miterlimit="10"/>
<path d="M454.472 365.911C454.798 366.562 454.993 366.693 455.58 367.084C455.905 367.344 456.491 367.214 456.752 366.953C463.199 359.264 468.8 350.336 477.983 345.579C479.09 344.992 478.113 343.298 477.006 343.884C467.628 348.707 461.962 357.7 455.384 365.585C455.775 365.52 456.166 365.454 456.556 365.454C456.426 365.259 456.296 365.129 456.166 364.933C455.58 363.825 453.886 364.803 454.472 365.911Z" fill="#161616"/>
<path d="M460.594 370.928C464.567 371.841 468.214 366.432 470.558 363.89C474.401 359.72 478.048 355.549 483.062 352.682C484.169 352.03 483.193 350.401 482.085 350.987C478.308 353.138 475.247 356.005 472.317 359.133C470.819 360.762 469.386 362.392 467.823 364.021C466.39 365.585 463.395 369.56 461.115 369.039C459.878 368.778 459.357 370.668 460.594 370.928Z" fill="#161616"/>
<path opacity="0.33" d="M454.733 358.678C470.363 347.665 474.14 345.123 474.205 345.253C474.336 345.384 468.084 349.163 462.678 356.397C459.943 360.111 458.185 363.63 457.078 366.237C457.273 366.628 457.859 367.671 459.031 368.322C460.529 369.17 461.897 368.974 462.353 368.909C462.743 368.713 463.33 368.388 463.981 367.931C466.26 366.433 467.628 364.673 468.149 364.087C468.409 363.761 472.512 358.613 474.401 356.592C476.094 354.768 478.96 352.422 483.649 350.727C479.806 356.592 475.899 362.523 472.056 368.388C476.029 366.433 478.634 364.217 480.262 362.523C481.89 360.893 482.411 359.916 485.342 356.267C488.077 352.878 490.096 350.727 490.877 349.815C497.716 341.995 507.94 323.357 514.453 317.101C528.389 303.612 550.858 314.625 595.208 314.951C617.611 315.146 636.171 312.344 648.936 309.803C650.043 310.585 652.127 312.344 652.908 315.212C652.908 315.212 653.885 318.796 651.411 323.292C648.675 328.375 634.999 337.499 605.888 336.717C582.118 336.065 574.889 329.548 543.043 325.964C532.362 324.791 523.57 324.465 517.969 324.335C512.694 336.847 506.638 346.035 501.884 352.226C491.398 365.976 479.546 375.556 477.787 374.253C477.657 374.187 477.331 373.862 477.136 373.275C476.68 371.972 477.657 370.473 478.178 369.691C479.155 368.127 480.392 366.042 481.955 363.044C480.913 364.347 479.22 366.107 476.745 367.606C470.037 371.711 459.096 373.014 455.384 367.671C454.863 367.019 453.17 364.282 454.733 358.678Z" fill="#828181"/>
<path opacity="0.51" d="M527.087 324.269C527.152 323.683 542.066 324.074 558.542 324.921C601.329 327.136 612.531 330.264 629.073 324.269C639.493 320.489 646.917 314.95 650.955 311.562C652.192 313.973 653.494 317.557 652.518 321.141C650.108 329.873 636.106 332.741 627.054 334.565C622.039 335.608 613.508 336.846 600.027 335.673C588.044 334.696 583.29 332.741 570.59 330.069C545.192 324.79 527.022 324.856 527.087 324.269Z" fill="#828181"/>
</svg>
