<svg width="61" height="59" viewBox="0 0 61 59" fill="none" xmlns="http://www.w3.org/2000/svg">
<rect x="0.15" y="0.15" width="60.7" height="58.7" rx="9.85" stroke="#5F5E5E" stroke-width="0.3"/>
<path d="M48.5 30C48.5 39.665 40.665 47.5 31 47.5C21.335 47.5 13.5 39.665 13.5 30C13.5 20.335 21.335 12.5 31 12.5C40.665 12.5 48.5 20.335 48.5 30Z" fill="white" stroke="black"/>
<path d="M23.5152 35.621C23.5602 35.8 24.6832 40 31.0002 40C37.3182 40 38.4402 35.8 38.4852 35.621C38.5402 35.404 38.4422 35.179 38.2482 35.067C38.0532 34.956 37.8092 34.989 37.6482 35.144C37.6292 35.163 35.6942 37 31.0002 37C26.3062 37 24.3702 35.163 24.3522 35.145C24.2562 35.05 24.1282 35 24.0002 35C23.9162 35 23.8312 35.021 23.7542 35.064C23.5582 35.176 23.4602 35.403 23.5152 35.621Z" fill="#664500"/>
<path d="M25 29C26.3807 29 27.5 27.433 27.5 25.5C27.5 23.567 26.3807 22 25 22C23.6193 22 22.5 23.567 22.5 25.5C22.5 27.433 23.6193 29 25 29Z" fill="#664500"/>
<path d="M37 29C38.3807 29 39.5 27.433 39.5 25.5C39.5 23.567 38.3807 22 37 22C35.6193 22 34.5 23.567 34.5 25.5C34.5 27.433 35.6193 29 37 29Z" fill="#664500"/>
</svg>
