<svg width="758" height="1024" viewBox="0 0 758 1024" fill="none" xmlns="http://www.w3.org/2000/svg">
<g filter="url(#filter0_d_1686_674)">
<rect width="720" height="1024" fill="url(#paint0_linear_1686_674)"/>
<rect width="720" height="1024" fill="black" fill-opacity="0.2"/>
<mask id="mask0_1686_674" style="mask-type:alpha" maskUnits="userSpaceOnUse" x="0" y="0" width="720" height="832">
<rect width="831.384" height="415.692" transform="matrix(0.866025 -0.5 0 1 0 415.692)" fill="#D9D9D9"/>
</mask>
<g mask="url(#mask0_1686_674)">
<rect width="831.384" height="415.692" transform="matrix(0.866025 0.5 0 1 0 -415.692)" fill="#93AAFC" fill-opacity="0.2"/>
<rect width="831.384" height="831.384" transform="matrix(0.866025 -0.5 0.866025 0.5 -720 415.692)" fill="#BDCBFD" fill-opacity="0.2"/>
<rect width="831.384" height="415.692" transform="matrix(0.866025 -0.5 0 1 -720 0)" fill="#6580E1" fill-opacity="0.2"/>
</g>
<path fill-rule="evenodd" clip-rule="evenodd" d="M210.133 282.371L210.189 282.586L210.348 282.804L210.604 283.028L210.948 283.262L211.375 283.506L211.877 283.764L212.449 284.037L213.083 284.326L213.77 284.634L214.503 284.961L215.271 285.306L216.063 285.671L216.867 286.054L217.669 286.454L218.453 286.869L219.206 287.295L219.912 287.73L220.554 288.169L221.119 288.607L221.592 289.04L221.963 289.462L222.221 289.869L222.361 290.254L222.378 290.614L222.274 290.946L222.049 291.245L221.712 291.509L221.27 291.739L220.734 291.933L220.117 292.092L219.433 292.218L218.695 292.313L217.917 292.381L217.114 292.425L216.298 292.448L215.482 292.455L214.674 292.449L213.886 292.434L213.125 292.414L212.396 292.393L211.707 292.374L211.059 292.36L210.458 292.353L209.905 292.358L209.402 292.375L208.949 292.407L208.548 292.457L208.198 292.526L207.899 292.615L207.65 292.728L207.452 292.864L207.303 293.027L207.202 293.216L207.149 293.435L207.143 293.684L207.183 293.964L207.267 294.277L207.395 294.624L207.564 295.007L207.773 295.425L208.02 295.88L208.303 296.371L208.617 296.899L208.961 297.462L209.329 298.059L209.716 298.688L210.117 299.345L210.525 300.027L210.933 300.728L211.333 301.441L211.715 302.16L212.07 302.875L212.389 303.578L212.661 304.257L212.878 304.902L213.029 305.503L213.108 306.047L213.108 306.525L213.023 306.927L212.852 307.247L212.593 307.478L212.249 307.617L211.823 307.663L211.321 307.617L210.752 307.483L210.125 307.267L209.451 306.977L208.741 306.624L208.006 306.216L207.258 305.767L206.506 305.287L205.762 304.789L205.034 304.283L204.329 303.782L203.655 303.295L203.016 302.831L202.417 302.399L201.862 302.007L201.353 301.662L200.892 301.372L200.481 301.142L200.122 300.98L199.814 300.893L199.561 300.888L199.363 300.974L199.219 301.155L199.122 301.427L199.066 301.784L199.046 302.221L199.056 302.733L199.09 303.317L199.145 303.966L199.215 304.676L199.294 305.44L199.379 306.25L199.462 307.098L199.54 307.973L199.606 308.863L199.656 309.757L199.682 310.639L199.681 311.496L199.648 312.311L199.579 313.069L199.47 313.756L199.32 314.357L199.128 314.861L198.893 315.257L198.618 315.538L198.304 315.699L197.956 315.74L197.577 315.663L197.172 315.472L196.747 315.175L196.308 314.782L195.86 314.305L195.408 313.757L194.957 313.15L194.511 312.5L194.075 311.819L193.651 311.12L193.241 310.416L192.847 309.716L192.471 309.031L192.112 308.369L191.771 307.737L191.448 307.14L191.141 306.585L190.85 306.074L190.574 305.611L190.311 305.198L190.059 304.837L189.818 304.529L189.586 304.275L189.361 304.076L189.14 303.933L188.924 303.845L188.709 303.813L188.494 303.836L188.278 303.915L188.059 304.05L187.834 304.24L187.603 304.485L187.363 304.784L187.114 305.137L186.853 305.542L186.579 305.997L186.29 306.5L185.986 307.049L185.665 307.639L185.327 308.266L184.972 308.924L184.598 309.606L184.207 310.304L183.8 311.008L183.377 311.709L182.943 312.393L182.498 313.05L182.048 313.664L181.596 314.222L181.147 314.712L180.706 315.119L180.278 315.431L179.87 315.64L179.486 315.736L179.133 315.714L178.813 315.571L178.532 315.309L178.29 314.931L178.091 314.444L177.935 313.858L177.82 313.184L177.744 312.436L177.706 311.629L177.7 310.778L177.722 309.899L177.768 309.006L177.832 308.114L177.908 307.236L177.992 306.383L178.076 305.566L178.157 304.795L178.229 304.076L178.286 303.416L178.324 302.822L178.338 302.298L178.323 301.848L178.273 301.478L178.183 301.193L178.047 300.996L177.858 300.895L177.613 300.886L177.315 300.961L176.963 301.112L176.56 301.331L176.107 301.612L175.606 301.949L175.058 302.334L174.466 302.76L173.833 303.219L173.164 303.703L172.464 304.203L171.739 304.708L170.997 305.208L170.246 305.692L169.496 306.147L168.758 306.562L168.044 306.925L167.363 307.226L166.728 307.454L166.149 307.601L165.636 307.661L165.198 307.63L164.84 307.506L164.567 307.29L164.382 306.984L164.284 306.594L164.27 306.127L164.337 305.593L164.477 305.001L164.684 304.362L164.948 303.688L165.26 302.988L165.61 302.274L165.989 301.555L166.386 300.841L166.793 300.137L167.202 299.452L167.605 298.791L167.995 298.157L168.366 297.555L168.713 296.986L169.033 296.453L169.321 295.956L169.574 295.495L169.789 295.071L169.965 294.683L170.099 294.33L170.19 294.012L170.237 293.726L170.239 293.472L170.193 293.249L170.1 293.055L169.959 292.888L169.769 292.748L169.528 292.632L169.237 292.539L168.895 292.467L168.502 292.414L168.057 292.379L167.562 292.36L167.017 292.353L166.423 292.358L165.783 292.371L165.1 292.39L164.378 292.411L163.621 292.431L162.836 292.447L162.032 292.454L161.216 292.45L160.399 292.43L159.593 292.39L158.811 292.326L158.065 292.235L157.371 292.114L156.743 291.96L156.193 291.772L155.735 291.548L155.381 291.289L155.138 290.995L155.014 290.669L155.012 290.313L155.132 289.932L155.372 289.528L155.725 289.108L156.183 288.677L156.734 288.239L157.365 287.8L158.061 287.364L158.808 286.936L159.589 286.519L160.389 286.117L161.193 285.731L161.988 285.363L162.76 285.014L163.499 284.685L164.195 284.374L164.838 284.082L165.42 283.806L165.934 283.546L166.373 283.3L166.731 283.065L167.001 282.839L167.176 282.62L167.249 282.405L167.211 282.19L167.068 281.973L166.827 281.75L166.496 281.518L166.082 281.276L165.591 281.02L165.03 280.75L164.406 280.463L163.726 280.158L163 279.834L162.237 279.492L161.448 279.13L160.645 278.75L159.842 278.352L159.054 277.94L158.294 277.515L157.58 277.081L156.927 276.643L156.349 276.204L155.86 275.77L155.473 275.346L155.196 274.936L155.037 274.547L155 274.183L155.085 273.847L155.291 273.542L155.611 273.272L156.037 273.037L156.558 272.837L157.163 272.673L157.838 272.542L158.568 272.441L159.341 272.369L160.14 272.322L160.955 272.296L161.772 272.287L162.582 272.292L163.374 272.305L164.14 272.324L164.874 272.345L165.57 272.365L166.224 272.38L166.833 272.388L167.394 272.386L167.905 272.37L168.366 272.341L168.775 272.294L169.134 272.228L169.441 272.142L169.697 272.033L169.904 271.901L170.061 271.743L170.169 271.558L170.229 271.344L170.243 271.1L170.21 270.825L170.133 270.517L170.012 270.175L169.849 269.798L169.646 269.386L169.405 268.937L169.128 268.451L168.818 267.929L168.479 267.372L168.115 266.78L167.73 266.156L167.331 265.503L166.924 264.825L166.515 264.127L166.114 263.415L165.728 262.696L165.368 261.98L165.043 261.275L164.762 260.591L164.536 259.939L164.374 259.331L164.283 258.778L164.27 258.288L164.341 257.873L164.499 257.54L164.744 257.294L165.075 257.141L165.488 257.08L165.978 257.112L166.537 257.232L167.155 257.435L167.822 257.714L168.528 258.058L169.26 258.458L170.007 258.901L170.758 259.377L171.504 259.873L172.235 260.378L172.944 260.88L173.624 261.371L174.269 261.839L174.874 262.276L175.436 262.675L175.953 263.028L176.421 263.328L176.84 263.567L177.208 263.741L177.524 263.841L177.786 263.859L177.993 263.788L178.145 263.621L178.249 263.364L178.311 263.02L178.337 262.596L178.331 262.095L178.3 261.522L178.249 260.883L178.181 260.182L178.103 259.426L178.019 258.623L177.934 257.781L177.855 256.91L177.787 256.021L177.735 255.127L177.704 254.241L177.7 253.38L177.728 252.557L177.792 251.789L177.894 251.09L178.037 250.474L178.222 249.954L178.45 249.541L178.719 249.241L179.027 249.06L179.37 249L179.745 249.059L180.146 249.232L180.568 249.513L181.005 249.891L181.452 250.355L181.904 250.893L182.355 251.491L182.802 252.136L183.24 252.813L183.667 253.509L184.079 254.214L184.475 254.915L184.854 255.603L185.216 256.269L185.56 256.907L185.886 257.509L186.195 258.071L186.488 258.59L186.767 259.06L187.032 259.482L187.285 259.851L187.528 260.167L187.761 260.43L187.988 260.637L188.209 260.79L188.426 260.886L188.641 260.928L188.855 260.913L189.071 260.843L189.29 260.717L189.514 260.536L189.744 260.299L189.982 260.009L190.229 259.665L190.489 259.268L190.76 258.821L191.047 258.325L191.348 257.783L191.666 257.199L192.001 256.578L192.354 255.924L192.725 255.246L193.113 254.55L193.518 253.846L193.938 253.144L194.371 252.456L194.814 251.794L195.264 251.172L195.716 250.604L196.166 250.103L196.609 249.682L197.039 249.353L197.45 249.128L197.838 249.013L198.197 249.016L198.522 249.14L198.81 249.383L199.058 249.743L199.263 250.213L199.427 250.784L199.548 251.445L199.63 252.182L199.674 252.981L199.685 253.826L199.667 254.702L199.624 255.593L199.563 256.486L199.488 257.368L199.406 258.225L199.321 259.048L199.239 259.828L199.166 260.555L199.106 261.225L199.064 261.83L199.046 262.366L199.056 262.827L199.1 263.21L199.183 263.509L199.311 263.72L199.492 263.837L199.728 263.86L200.018 263.798L200.361 263.659L200.756 263.45L201.201 263.178L201.695 262.85L202.236 262.472L202.821 262.052L203.447 261.598L204.111 261.117L204.807 260.619L205.528 260.114L206.268 259.612L207.018 259.125L207.769 258.665L208.509 258.243L209.228 257.871L209.915 257.559L210.558 257.319L211.147 257.158L211.671 257.084L212.121 257.1L212.492 257.209L212.779 257.411L212.978 257.703L213.09 258.08L213.117 258.535L213.063 259.059L212.934 259.643L212.737 260.275L212.481 260.944L212.176 261.641L211.831 262.353L211.457 263.072L211.062 263.788L210.656 264.494L210.247 265.182L209.843 265.847L209.45 266.486L209.076 267.093L208.724 267.667L208.4 268.206L208.107 268.709L207.848 269.176L207.626 269.606L207.444 269.999L207.303 270.358L207.205 270.682L207.151 270.972L207.142 271.231L207.18 271.459L207.265 271.658L207.399 271.829L207.581 271.973L207.814 272.093L208.097 272.19L208.431 272.265L208.816 272.32L209.252 272.358L209.739 272.38L210.277 272.388L210.863 272.385L211.496 272.373L212.172 272.355L212.889 272.334L213.64 272.314L214.421 272.297L215.223 272.288L216.038 272.29L216.855 272.307L217.664 272.344L218.451 272.404L219.203 272.49L219.906 272.606L220.546 272.755L221.109 272.937L221.582 273.155L221.954 273.409L222.215 273.697L222.358 274.018L222.38 274.37L222.279 274.748L222.058 275.148L221.722 275.566L221.28 275.996L220.743 276.433L220.124 276.872L219.437 277.309L218.697 277.738L217.921 278.157L217.123 278.562L216.319 278.95L215.522 279.321L214.745 279.673L213.999 280.006L213.296 280.319L212.645 280.615L212.052 280.893L211.527 281.155L211.075 281.404L210.704 281.64L210.419 281.867L210.229 282.087L210.139 282.303L210.133 282.371Z" fill="#F2EAFD"/>
<path d="M195.2 363.62V405.74H184.94V388.4H168.98V405.74H158.72V363.62H168.98V380.12H184.94V363.62H195.2ZM234.167 388.46C234.167 389.42 234.107 390.42 233.987 391.46H210.767C210.927 393.54 211.587 395.14 212.747 396.26C213.947 397.34 215.407 397.88 217.127 397.88C219.687 397.88 221.467 396.8 222.467 394.64H233.387C232.827 396.84 231.807 398.82 230.327 400.58C228.887 402.34 227.067 403.72 224.867 404.72C222.667 405.72 220.207 406.22 217.487 406.22C214.207 406.22 211.287 405.52 208.727 404.12C206.167 402.72 204.167 400.72 202.727 398.12C201.287 395.52 200.567 392.48 200.567 389C200.567 385.52 201.267 382.48 202.667 379.88C204.107 377.28 206.107 375.28 208.667 373.88C211.227 372.48 214.167 371.78 217.487 371.78C220.727 371.78 223.607 372.46 226.127 373.82C228.647 375.18 230.607 377.12 232.007 379.64C233.447 382.16 234.167 385.1 234.167 388.46ZM223.667 385.76C223.667 384 223.067 382.6 221.867 381.56C220.667 380.52 219.167 380 217.367 380C215.647 380 214.187 380.5 212.987 381.5C211.827 382.5 211.107 383.92 210.827 385.76H223.667ZM249.839 361.34V405.74H239.579V361.34H249.839ZM267.535 361.34V405.74H257.275V361.34H267.535ZM290.21 406.22C286.93 406.22 283.97 405.52 281.33 404.12C278.73 402.72 276.67 400.72 275.15 398.12C273.67 395.52 272.93 392.48 272.93 389C272.93 385.56 273.69 382.54 275.21 379.94C276.73 377.3 278.81 375.28 281.45 373.88C284.09 372.48 287.05 371.78 290.33 371.78C293.61 371.78 296.57 372.48 299.21 373.88C301.85 375.28 303.93 377.3 305.45 379.94C306.97 382.54 307.73 385.56 307.73 389C307.73 392.44 306.95 395.48 305.39 398.12C303.87 400.72 301.77 402.72 299.09 404.12C296.45 405.52 293.49 406.22 290.21 406.22ZM290.21 397.34C292.17 397.34 293.83 396.62 295.19 395.18C296.59 393.74 297.29 391.68 297.29 389C297.29 386.32 296.61 384.26 295.25 382.82C293.93 381.38 292.29 380.66 290.33 380.66C288.33 380.66 286.67 381.38 285.35 382.82C284.03 384.22 283.37 386.28 283.37 389C283.37 391.68 284.01 393.74 285.29 395.18C286.61 396.62 288.25 397.34 290.21 397.34Z" fill="white"/>
<path d="M185.12 453.62V482.3C185.12 486.74 183.86 490.16 181.34 492.56C178.86 494.96 175.5 496.16 171.26 496.16C166.82 496.16 163.26 494.9 160.58 492.38C157.9 489.86 156.56 486.28 156.56 481.64H166.76C166.76 483.4 167.12 484.74 167.84 485.66C168.56 486.54 169.6 486.98 170.96 486.98C172.2 486.98 173.16 486.58 173.84 485.78C174.52 484.98 174.86 483.82 174.86 482.3V453.62H185.12ZM191.368 478.94C191.368 475.5 192.008 472.48 193.288 469.88C194.608 467.28 196.388 465.28 198.628 463.88C200.868 462.48 203.368 461.78 206.128 461.78C208.488 461.78 210.548 462.26 212.308 463.22C214.108 464.18 215.488 465.44 216.448 467V462.26H226.708V495.74H216.448V491C215.448 492.56 214.048 493.82 212.248 494.78C210.488 495.74 208.428 496.22 206.068 496.22C203.348 496.22 200.868 495.52 198.628 494.12C196.388 492.68 194.608 490.66 193.288 488.06C192.008 485.42 191.368 482.38 191.368 478.94ZM216.448 479C216.448 476.44 215.728 474.42 214.288 472.94C212.888 471.46 211.168 470.72 209.128 470.72C207.088 470.72 205.348 471.46 203.908 472.94C202.508 474.38 201.808 476.38 201.808 478.94C201.808 481.5 202.508 483.54 203.908 485.06C205.348 486.54 207.088 487.28 209.128 487.28C211.168 487.28 212.888 486.54 214.288 485.06C215.728 483.58 216.448 481.56 216.448 479ZM244.39 467C245.39 465.44 246.77 464.18 248.53 463.22C250.29 462.26 252.35 461.78 254.71 461.78C257.47 461.78 259.97 462.48 262.21 463.88C264.45 465.28 266.21 467.28 267.49 469.88C268.81 472.48 269.47 475.5 269.47 478.94C269.47 482.38 268.81 485.42 267.49 488.06C266.21 490.66 264.45 492.68 262.21 494.12C259.97 495.52 257.47 496.22 254.71 496.22C252.39 496.22 250.33 495.74 248.53 494.78C246.77 493.82 245.39 492.58 244.39 491.06V511.7H234.13V462.26H244.39V467ZM259.03 478.94C259.03 476.38 258.31 474.38 256.87 472.94C255.47 471.46 253.73 470.72 251.65 470.72C249.61 470.72 247.87 471.46 246.43 472.94C245.03 474.42 244.33 476.44 244.33 479C244.33 481.56 245.03 483.58 246.43 485.06C247.87 486.54 249.61 487.28 251.65 487.28C253.69 487.28 255.43 486.54 256.87 485.06C258.31 483.54 259.03 481.5 259.03 478.94ZM272.813 478.94C272.813 475.5 273.453 472.48 274.733 469.88C276.053 467.28 277.833 465.28 280.073 463.88C282.313 462.48 284.813 461.78 287.573 461.78C289.933 461.78 291.993 462.26 293.753 463.22C295.553 464.18 296.933 465.44 297.893 467V462.26H308.153V495.74H297.893V491C296.893 492.56 295.493 493.82 293.693 494.78C291.933 495.74 289.873 496.22 287.513 496.22C284.793 496.22 282.313 495.52 280.073 494.12C277.833 492.68 276.053 490.66 274.733 488.06C273.453 485.42 272.813 482.38 272.813 478.94ZM297.893 479C297.893 476.44 297.173 474.42 295.733 472.94C294.333 471.46 292.613 470.72 290.573 470.72C288.533 470.72 286.793 471.46 285.353 472.94C283.953 474.38 283.253 476.38 283.253 478.94C283.253 481.5 283.953 483.54 285.353 485.06C286.793 486.54 288.533 487.28 290.573 487.28C292.613 487.28 294.333 486.54 295.733 485.06C297.173 483.58 297.893 481.56 297.893 479ZM329.075 452.12L327.875 480.86H319.175L317.975 452.12H329.075ZM323.675 496.22C321.875 496.22 320.395 495.7 319.235 494.66C318.115 493.58 317.555 492.26 317.555 490.7C317.555 489.1 318.115 487.76 319.235 486.68C320.395 485.6 321.875 485.06 323.675 485.06C325.435 485.06 326.875 485.6 327.995 486.68C329.155 487.76 329.735 489.1 329.735 490.7C329.735 492.26 329.155 493.58 327.995 494.66C326.875 495.7 325.435 496.22 323.675 496.22Z" fill="white"/>
<path d="M157.988 565.194V573.132C157.988 574.248 158.258 575.076 158.798 575.616C159.35 576.156 160.112 576.426 161.084 576.426C162.044 576.426 162.794 576.156 163.334 575.616C163.886 575.076 164.162 574.248 164.162 573.132V565.194H165.8V573.114C165.8 574.158 165.59 575.04 165.17 575.76C164.75 576.468 164.18 576.996 163.46 577.344C162.752 577.692 161.954 577.866 161.066 577.866C160.178 577.866 159.374 577.692 158.654 577.344C157.946 576.996 157.382 576.468 156.962 575.76C156.554 575.04 156.35 574.158 156.35 573.114V565.194H157.988ZM173.338 567.696C174.538 567.696 175.51 568.062 176.254 568.794C176.998 569.514 177.37 570.558 177.37 571.926V577.74H175.75V572.16C175.75 571.176 175.504 570.426 175.012 569.91C174.52 569.382 173.848 569.118 172.996 569.118C172.132 569.118 171.442 569.388 170.926 569.928C170.422 570.468 170.17 571.254 170.17 572.286V577.74H168.532V567.876H170.17V569.28C170.494 568.776 170.932 568.386 171.484 568.11C172.048 567.834 172.666 567.696 173.338 567.696ZM181.684 564.42V577.74H180.046V564.42H181.684ZM188.778 577.902C187.854 577.902 187.014 577.692 186.258 577.272C185.514 576.852 184.926 576.258 184.494 575.49C184.074 574.71 183.864 573.81 183.864 572.79C183.864 571.782 184.08 570.894 184.512 570.126C184.956 569.346 185.556 568.752 186.312 568.344C187.068 567.924 187.914 567.714 188.85 567.714C189.786 567.714 190.632 567.924 191.388 568.344C192.144 568.752 192.738 569.34 193.17 570.108C193.614 570.876 193.836 571.77 193.836 572.79C193.836 573.81 193.608 574.71 193.152 575.49C192.708 576.258 192.102 576.852 191.334 577.272C190.566 577.692 189.714 577.902 188.778 577.902ZM188.778 576.462C189.366 576.462 189.918 576.324 190.434 576.048C190.95 575.772 191.364 575.358 191.676 574.806C192 574.254 192.162 573.582 192.162 572.79C192.162 571.998 192.006 571.326 191.694 570.774C191.382 570.222 190.974 569.814 190.47 569.55C189.966 569.274 189.42 569.136 188.832 569.136C188.232 569.136 187.68 569.274 187.176 569.55C186.684 569.814 186.288 570.222 185.988 570.774C185.688 571.326 185.538 571.998 185.538 572.79C185.538 573.594 185.682 574.272 185.97 574.824C186.27 575.376 186.666 575.79 187.158 576.066C187.65 576.33 188.19 576.462 188.778 576.462ZM195.378 572.79C195.378 571.77 195.582 570.882 195.99 570.126C196.398 569.358 196.962 568.764 197.682 568.344C198.414 567.924 199.248 567.714 200.184 567.714C201.396 567.714 202.392 568.008 203.172 568.596C203.964 569.184 204.486 570 204.738 571.044H202.974C202.806 570.444 202.476 569.97 201.984 569.622C201.504 569.274 200.904 569.1 200.184 569.1C199.248 569.1 198.492 569.424 197.916 570.072C197.34 570.708 197.052 571.614 197.052 572.79C197.052 573.978 197.34 574.896 197.916 575.544C198.492 576.192 199.248 576.516 200.184 576.516C200.904 576.516 201.504 576.348 201.984 576.012C202.464 575.676 202.794 575.196 202.974 574.572H204.738C204.474 575.58 203.946 576.39 203.154 577.002C202.362 577.602 201.372 577.902 200.184 577.902C199.248 577.902 198.414 577.692 197.682 577.272C196.962 576.852 196.398 576.258 195.99 575.49C195.582 574.722 195.378 573.822 195.378 572.79ZM212.431 577.74L208.561 573.384V577.74H206.923V564.42H208.561V572.25L212.359 567.876H214.645L210.001 572.79L214.663 577.74H212.431ZM229.482 567.876L223.542 582.384H221.85L223.794 577.632L219.816 567.876H221.634L224.73 575.868L227.79 567.876H229.482ZM235.43 577.902C234.506 577.902 233.666 577.692 232.91 577.272C232.166 576.852 231.578 576.258 231.146 575.49C230.726 574.71 230.516 573.81 230.516 572.79C230.516 571.782 230.732 570.894 231.164 570.126C231.608 569.346 232.208 568.752 232.964 568.344C233.72 567.924 234.566 567.714 235.502 567.714C236.438 567.714 237.284 567.924 238.04 568.344C238.796 568.752 239.39 569.34 239.822 570.108C240.266 570.876 240.488 571.77 240.488 572.79C240.488 573.81 240.26 574.71 239.804 575.49C239.36 576.258 238.754 576.852 237.986 577.272C237.218 577.692 236.366 577.902 235.43 577.902ZM235.43 576.462C236.018 576.462 236.57 576.324 237.086 576.048C237.602 575.772 238.016 575.358 238.328 574.806C238.652 574.254 238.814 573.582 238.814 572.79C238.814 571.998 238.658 571.326 238.346 570.774C238.034 570.222 237.626 569.814 237.122 569.55C236.618 569.274 236.072 569.136 235.484 569.136C234.884 569.136 234.332 569.274 233.828 569.55C233.336 569.814 232.94 570.222 232.64 570.774C232.34 571.326 232.19 571.998 232.19 572.79C232.19 573.594 232.334 574.272 232.622 574.824C232.922 575.376 233.318 575.79 233.81 576.066C234.302 576.33 234.842 576.462 235.43 576.462ZM251.39 567.876V577.74H249.752V576.282C249.44 576.786 249.002 577.182 248.438 577.47C247.886 577.746 247.274 577.884 246.602 577.884C245.834 577.884 245.144 577.728 244.532 577.416C243.92 577.092 243.434 576.612 243.074 575.976C242.726 575.34 242.552 574.566 242.552 573.654V567.876H244.172V573.438C244.172 574.41 244.418 575.16 244.91 575.688C245.402 576.204 246.074 576.462 246.926 576.462C247.802 576.462 248.492 576.192 248.996 575.652C249.5 575.112 249.752 574.326 249.752 573.294V567.876H251.39ZM255.794 569.478C256.082 568.914 256.49 568.476 257.018 568.164C257.558 567.852 258.212 567.696 258.98 567.696V569.388H258.548C256.712 569.388 255.794 570.384 255.794 572.376V577.74H254.156V567.876H255.794V569.478ZM267.307 569.694C267.631 569.13 268.111 568.662 268.747 568.29C269.395 567.906 270.145 567.714 270.997 567.714C271.873 567.714 272.665 567.924 273.373 568.344C274.093 568.764 274.657 569.358 275.065 570.126C275.473 570.882 275.677 571.764 275.677 572.772C275.677 573.768 275.473 574.656 275.065 575.436C274.657 576.216 274.093 576.822 273.373 577.254C272.665 577.686 271.873 577.902 270.997 577.902C270.157 577.902 269.413 577.716 268.765 577.344C268.129 576.96 267.643 576.486 267.307 575.922V582.42H265.669V567.876H267.307V569.694ZM274.003 572.772C274.003 572.028 273.853 571.38 273.553 570.828C273.253 570.276 272.845 569.856 272.329 569.568C271.825 569.28 271.267 569.136 270.655 569.136C270.055 569.136 269.497 569.286 268.981 569.586C268.477 569.874 268.069 570.3 267.757 570.864C267.457 571.416 267.307 572.058 267.307 572.79C267.307 573.534 267.457 574.188 267.757 574.752C268.069 575.304 268.477 575.73 268.981 576.03C269.497 576.318 270.055 576.462 270.655 576.462C271.267 576.462 271.825 576.318 272.329 576.03C272.845 575.73 273.253 575.304 273.553 574.752C273.853 574.188 274.003 573.528 274.003 572.772ZM282.135 577.902C281.211 577.902 280.371 577.692 279.615 577.272C278.871 576.852 278.283 576.258 277.851 575.49C277.431 574.71 277.221 573.81 277.221 572.79C277.221 571.782 277.437 570.894 277.869 570.126C278.313 569.346 278.913 568.752 279.669 568.344C280.425 567.924 281.271 567.714 282.207 567.714C283.143 567.714 283.989 567.924 284.745 568.344C285.501 568.752 286.095 569.34 286.527 570.108C286.971 570.876 287.193 571.77 287.193 572.79C287.193 573.81 286.965 574.71 286.509 575.49C286.065 576.258 285.459 576.852 284.691 577.272C283.923 577.692 283.071 577.902 282.135 577.902ZM282.135 576.462C282.723 576.462 283.275 576.324 283.791 576.048C284.307 575.772 284.721 575.358 285.033 574.806C285.357 574.254 285.519 573.582 285.519 572.79C285.519 571.998 285.363 571.326 285.051 570.774C284.739 570.222 284.331 569.814 283.827 569.55C283.323 569.274 282.777 569.136 282.189 569.136C281.589 569.136 281.037 569.274 280.533 569.55C280.041 569.814 279.645 570.222 279.345 570.774C279.045 571.326 278.895 571.998 278.895 572.79C278.895 573.594 279.039 574.272 279.327 574.824C279.627 575.376 280.023 575.79 280.515 576.066C281.007 576.33 281.547 576.462 282.135 576.462ZM291.345 569.226V575.04C291.345 575.52 291.447 575.862 291.651 576.066C291.855 576.258 292.209 576.354 292.713 576.354H293.919V577.74H292.443C291.531 577.74 290.847 577.53 290.391 577.11C289.935 576.69 289.707 576 289.707 575.04V569.226H288.429V567.876H289.707V565.392H291.345V567.876H293.919V569.226H291.345ZM304.904 572.43C304.904 572.742 304.886 573.072 304.85 573.42H296.966C297.026 574.392 297.356 575.154 297.956 575.706C298.568 576.246 299.306 576.516 300.17 576.516C300.878 576.516 301.466 576.354 301.934 576.03C302.414 575.694 302.75 575.25 302.942 574.698H304.706C304.442 575.646 303.914 576.42 303.122 577.02C302.33 577.608 301.346 577.902 300.17 577.902C299.234 577.902 298.394 577.692 297.65 577.272C296.918 576.852 296.342 576.258 295.922 575.49C295.502 574.71 295.292 573.81 295.292 572.79C295.292 571.77 295.496 570.876 295.904 570.108C296.312 569.34 296.882 568.752 297.614 568.344C298.358 567.924 299.21 567.714 300.17 567.714C301.106 567.714 301.934 567.918 302.654 568.326C303.374 568.734 303.926 569.298 304.31 570.018C304.706 570.726 304.904 571.53 304.904 572.43ZM303.212 572.088C303.212 571.464 303.074 570.93 302.798 570.486C302.522 570.03 302.144 569.688 301.664 569.46C301.196 569.22 300.674 569.1 300.098 569.1C299.27 569.1 298.562 569.364 297.974 569.892C297.398 570.42 297.068 571.152 296.984 572.088H303.212ZM311.872 567.696C313.072 567.696 314.044 568.062 314.788 568.794C315.532 569.514 315.904 570.558 315.904 571.926V577.74H314.284V572.16C314.284 571.176 314.038 570.426 313.546 569.91C313.054 569.382 312.382 569.118 311.53 569.118C310.666 569.118 309.976 569.388 309.46 569.928C308.956 570.468 308.704 571.254 308.704 572.286V577.74H307.066V567.876H308.704V569.28C309.028 568.776 309.466 568.386 310.018 568.11C310.582 567.834 311.2 567.696 311.872 567.696ZM320.577 569.226V575.04C320.577 575.52 320.679 575.862 320.883 576.066C321.087 576.258 321.441 576.354 321.945 576.354H323.151V577.74H321.675C320.763 577.74 320.079 577.53 319.623 577.11C319.167 576.69 318.939 576 318.939 575.04V569.226H317.661V567.876H318.939V565.392H320.577V567.876H323.151V569.226H320.577ZM325.982 566.274C325.67 566.274 325.406 566.166 325.19 565.95C324.974 565.734 324.866 565.47 324.866 565.158C324.866 564.846 324.974 564.582 325.19 564.366C325.406 564.15 325.67 564.042 325.982 564.042C326.282 564.042 326.534 564.15 326.738 564.366C326.954 564.582 327.062 564.846 327.062 565.158C327.062 565.47 326.954 565.734 326.738 565.95C326.534 566.166 326.282 566.274 325.982 566.274ZM326.774 567.876V577.74H325.136V567.876H326.774ZM328.954 572.772C328.954 571.764 329.158 570.882 329.566 570.126C329.974 569.358 330.532 568.764 331.24 568.344C331.96 567.924 332.758 567.714 333.634 567.714C334.498 567.714 335.248 567.9 335.884 568.272C336.52 568.644 336.994 569.112 337.306 569.676V567.876H338.962V577.74H337.306V575.904C336.982 576.48 336.496 576.96 335.848 577.344C335.212 577.716 334.468 577.902 333.616 577.902C332.74 577.902 331.948 577.686 331.24 577.254C330.532 576.822 329.974 576.216 329.566 575.436C329.158 574.656 328.954 573.768 328.954 572.772ZM337.306 572.79C337.306 572.046 337.156 571.398 336.856 570.846C336.556 570.294 336.148 569.874 335.632 569.586C335.128 569.286 334.57 569.136 333.958 569.136C333.346 569.136 332.788 569.28 332.284 569.568C331.78 569.856 331.378 570.276 331.078 570.828C330.778 571.38 330.628 572.028 330.628 572.772C330.628 573.528 330.778 574.188 331.078 574.752C331.378 575.304 331.78 575.73 332.284 576.03C332.788 576.318 333.346 576.462 333.958 576.462C334.57 576.462 335.128 576.318 335.632 576.03C336.148 575.73 336.556 575.304 336.856 574.752C337.156 574.188 337.306 573.534 337.306 572.79ZM343.368 564.42V577.74H341.73V564.42H343.368ZM354.972 569.226H352.902V577.74H351.264V569.226H349.986V567.876H351.264V567.174C351.264 566.07 351.546 565.266 352.11 564.762C352.686 564.246 353.604 563.988 354.864 563.988V565.356C354.144 565.356 353.634 565.5 353.334 565.788C353.046 566.064 352.902 566.526 352.902 567.174V567.876H354.972V569.226ZM361.184 577.902C360.26 577.902 359.42 577.692 358.664 577.272C357.92 576.852 357.332 576.258 356.9 575.49C356.48 574.71 356.27 573.81 356.27 572.79C356.27 571.782 356.486 570.894 356.918 570.126C357.362 569.346 357.962 568.752 358.718 568.344C359.474 567.924 360.32 567.714 361.256 567.714C362.192 567.714 363.038 567.924 363.794 568.344C364.55 568.752 365.144 569.34 365.576 570.108C366.02 570.876 366.242 571.77 366.242 572.79C366.242 573.81 366.014 574.71 365.558 575.49C365.114 576.258 364.508 576.852 363.74 577.272C362.972 577.692 362.12 577.902 361.184 577.902ZM361.184 576.462C361.772 576.462 362.324 576.324 362.84 576.048C363.356 575.772 363.77 575.358 364.082 574.806C364.406 574.254 364.568 573.582 364.568 572.79C364.568 571.998 364.412 571.326 364.1 570.774C363.788 570.222 363.38 569.814 362.876 569.55C362.372 569.274 361.826 569.136 361.238 569.136C360.638 569.136 360.086 569.274 359.582 569.55C359.09 569.814 358.694 570.222 358.394 570.774C358.094 571.326 357.944 571.998 357.944 572.79C357.944 573.594 358.088 574.272 358.376 574.824C358.676 575.376 359.072 575.79 359.564 576.066C360.056 576.33 360.596 576.462 361.184 576.462ZM370.034 569.478C370.322 568.914 370.73 568.476 371.258 568.164C371.798 567.852 372.452 567.696 373.22 567.696V569.388H372.788C370.952 569.388 370.034 570.384 370.034 572.376V577.74H368.396V567.876H370.034V569.478ZM389.413 568.83C389.065 568.098 388.561 567.534 387.901 567.138C387.241 566.73 386.473 566.526 385.597 566.526C384.721 566.526 383.929 566.73 383.221 567.138C382.525 567.534 381.973 568.11 381.565 568.866C381.169 569.61 380.971 570.474 380.971 571.458C380.971 572.442 381.169 573.306 381.565 574.05C381.973 574.794 382.525 575.37 383.221 575.778C383.929 576.174 384.721 576.372 385.597 576.372C386.821 576.372 387.829 576.006 388.621 575.274C389.413 574.542 389.875 573.552 390.007 572.304H385.003V570.972H391.753V572.232C391.657 573.264 391.333 574.212 390.781 575.076C390.229 575.928 389.503 576.606 388.603 577.11C387.703 577.602 386.701 577.848 385.597 577.848C384.433 577.848 383.371 577.578 382.411 577.038C381.451 576.486 380.689 575.724 380.125 574.752C379.573 573.78 379.297 572.682 379.297 571.458C379.297 570.234 379.573 569.136 380.125 568.164C380.689 567.18 381.451 566.418 382.411 565.878C383.371 565.326 384.433 565.05 385.597 565.05C386.929 565.05 388.105 565.38 389.125 566.04C390.157 566.7 390.907 567.63 391.375 568.83H389.413ZM395.557 564.42V577.74H393.919V564.42H395.557ZM402.651 577.902C401.727 577.902 400.887 577.692 400.131 577.272C399.387 576.852 398.799 576.258 398.367 575.49C397.947 574.71 397.737 573.81 397.737 572.79C397.737 571.782 397.953 570.894 398.385 570.126C398.829 569.346 399.429 568.752 400.185 568.344C400.941 567.924 401.787 567.714 402.723 567.714C403.659 567.714 404.505 567.924 405.261 568.344C406.017 568.752 406.611 569.34 407.043 570.108C407.487 570.876 407.709 571.77 407.709 572.79C407.709 573.81 407.481 574.71 407.025 575.49C406.581 576.258 405.975 576.852 405.207 577.272C404.439 577.692 403.587 577.902 402.651 577.902ZM402.651 576.462C403.239 576.462 403.791 576.324 404.307 576.048C404.823 575.772 405.237 575.358 405.549 574.806C405.873 574.254 406.035 573.582 406.035 572.79C406.035 571.998 405.879 571.326 405.567 570.774C405.255 570.222 404.847 569.814 404.343 569.55C403.839 569.274 403.293 569.136 402.705 569.136C402.105 569.136 401.553 569.274 401.049 569.55C400.557 569.814 400.161 570.222 399.861 570.774C399.561 571.326 399.411 571.998 399.411 572.79C399.411 573.594 399.555 574.272 399.843 574.824C400.143 575.376 400.539 575.79 401.031 576.066C401.523 576.33 402.063 576.462 402.651 576.462ZM411.501 569.712C411.837 569.124 412.329 568.644 412.977 568.272C413.625 567.9 414.363 567.714 415.191 567.714C416.079 567.714 416.877 567.924 417.585 568.344C418.293 568.764 418.851 569.358 419.259 570.126C419.667 570.882 419.871 571.764 419.871 572.772C419.871 573.768 419.667 574.656 419.259 575.436C418.851 576.216 418.287 576.822 417.567 577.254C416.859 577.686 416.067 577.902 415.191 577.902C414.339 577.902 413.589 577.716 412.941 577.344C412.305 576.972 411.825 576.498 411.501 575.922V577.74H409.863V564.42H411.501V569.712ZM418.197 572.772C418.197 572.028 418.047 571.38 417.747 570.828C417.447 570.276 417.039 569.856 416.523 569.568C416.019 569.28 415.461 569.136 414.849 569.136C414.249 569.136 413.691 569.286 413.175 569.586C412.671 569.874 412.263 570.3 411.951 570.864C411.651 571.416 411.501 572.058 411.501 572.79C411.501 573.534 411.651 574.188 411.951 574.752C412.263 575.304 412.671 575.73 413.175 576.03C413.691 576.318 414.249 576.462 414.849 576.462C415.461 576.462 416.019 576.318 416.523 576.03C417.039 575.73 417.447 575.304 417.747 574.752C418.047 574.188 418.197 573.528 418.197 572.772ZM421.415 572.772C421.415 571.764 421.619 570.882 422.027 570.126C422.435 569.358 422.993 568.764 423.701 568.344C424.421 567.924 425.219 567.714 426.095 567.714C426.959 567.714 427.709 567.9 428.345 568.272C428.981 568.644 429.455 569.112 429.767 569.676V567.876H431.423V577.74H429.767V575.904C429.443 576.48 428.957 576.96 428.309 577.344C427.673 577.716 426.929 577.902 426.077 577.902C425.201 577.902 424.409 577.686 423.701 577.254C422.993 576.822 422.435 576.216 422.027 575.436C421.619 574.656 421.415 573.768 421.415 572.772ZM429.767 572.79C429.767 572.046 429.617 571.398 429.317 570.846C429.017 570.294 428.609 569.874 428.093 569.586C427.589 569.286 427.031 569.136 426.419 569.136C425.807 569.136 425.249 569.28 424.745 569.568C424.241 569.856 423.839 570.276 423.539 570.828C423.239 571.38 423.089 572.028 423.089 572.772C423.089 573.528 423.239 574.188 423.539 574.752C423.839 575.304 424.241 575.73 424.745 576.03C425.249 576.318 425.807 576.462 426.419 576.462C427.031 576.462 427.589 576.318 428.093 576.03C428.609 575.73 429.017 575.304 429.317 574.752C429.617 574.188 429.767 573.534 429.767 572.79ZM435.829 564.42V577.74H434.191V564.42H435.829ZM447.397 577.866C446.569 577.866 445.825 577.722 445.165 577.434C444.517 577.134 444.007 576.726 443.635 576.21C443.263 575.682 443.071 575.076 443.059 574.392H444.805C444.865 574.98 445.105 575.478 445.525 575.886C445.957 576.282 446.581 576.48 447.397 576.48C448.177 576.48 448.789 576.288 449.233 575.904C449.689 575.508 449.917 575.004 449.917 574.392C449.917 573.912 449.785 573.522 449.521 573.222C449.257 572.922 448.927 572.694 448.531 572.538C448.135 572.382 447.601 572.214 446.929 572.034C446.101 571.818 445.435 571.602 444.931 571.386C444.439 571.17 444.013 570.834 443.653 570.378C443.305 569.91 443.131 569.286 443.131 568.506C443.131 567.822 443.305 567.216 443.653 566.688C444.001 566.16 444.487 565.752 445.111 565.464C445.747 565.176 446.473 565.032 447.289 565.032C448.465 565.032 449.425 565.326 450.169 565.914C450.925 566.502 451.351 567.282 451.447 568.254H449.647C449.587 567.774 449.335 567.354 448.891 566.994C448.447 566.622 447.859 566.436 447.127 566.436C446.443 566.436 445.885 566.616 445.453 566.976C445.021 567.324 444.805 567.816 444.805 568.452C444.805 568.908 444.931 569.28 445.183 569.568C445.447 569.856 445.765 570.078 446.137 570.234C446.521 570.378 447.055 570.546 447.739 570.738C448.567 570.966 449.233 571.194 449.737 571.422C450.241 571.638 450.673 571.98 451.033 572.448C451.393 572.904 451.573 573.528 451.573 574.32C451.573 574.932 451.411 575.508 451.087 576.048C450.763 576.588 450.283 577.026 449.647 577.362C449.011 577.698 448.261 577.866 447.397 577.866ZM462.732 567.876V577.74H461.094V576.282C460.782 576.786 460.344 577.182 459.78 577.47C459.228 577.746 458.616 577.884 457.944 577.884C457.176 577.884 456.486 577.728 455.874 577.416C455.262 577.092 454.776 576.612 454.416 575.976C454.068 575.34 453.894 574.566 453.894 573.654V567.876H455.514V573.438C455.514 574.41 455.76 575.16 456.252 575.688C456.744 576.204 457.416 576.462 458.268 576.462C459.144 576.462 459.834 576.192 460.338 575.652C460.842 575.112 461.094 574.326 461.094 573.294V567.876H462.732ZM464.885 572.79C464.885 571.77 465.089 570.882 465.497 570.126C465.905 569.358 466.469 568.764 467.189 568.344C467.921 567.924 468.755 567.714 469.691 567.714C470.903 567.714 471.899 568.008 472.679 568.596C473.471 569.184 473.993 570 474.245 571.044H472.481C472.313 570.444 471.983 569.97 471.491 569.622C471.011 569.274 470.411 569.1 469.691 569.1C468.755 569.1 467.999 569.424 467.423 570.072C466.847 570.708 466.559 571.614 466.559 572.79C466.559 573.978 466.847 574.896 467.423 575.544C467.999 576.192 468.755 576.516 469.691 576.516C470.411 576.516 471.011 576.348 471.491 576.012C471.971 575.676 472.301 575.196 472.481 574.572H474.245C473.981 575.58 473.453 576.39 472.661 577.002C471.869 577.602 470.879 577.902 469.691 577.902C468.755 577.902 467.921 577.692 467.189 577.272C466.469 576.852 465.905 576.258 465.497 575.49C465.089 574.722 464.885 573.822 464.885 572.79ZM475.819 572.79C475.819 571.77 476.023 570.882 476.431 570.126C476.839 569.358 477.403 568.764 478.123 568.344C478.855 567.924 479.689 567.714 480.625 567.714C481.837 567.714 482.833 568.008 483.613 568.596C484.405 569.184 484.927 570 485.179 571.044H483.415C483.247 570.444 482.917 569.97 482.425 569.622C481.945 569.274 481.345 569.1 480.625 569.1C479.689 569.1 478.933 569.424 478.357 570.072C477.781 570.708 477.493 571.614 477.493 572.79C477.493 573.978 477.781 574.896 478.357 575.544C478.933 576.192 479.689 576.516 480.625 576.516C481.345 576.516 481.945 576.348 482.425 576.012C482.905 575.676 483.235 575.196 483.415 574.572H485.179C484.915 575.58 484.387 576.39 483.595 577.002C482.803 577.602 481.813 577.902 480.625 577.902C479.689 577.902 478.855 577.692 478.123 577.272C477.403 576.852 476.839 576.258 476.431 575.49C476.023 574.722 475.819 573.822 475.819 572.79ZM496.365 572.43C496.365 572.742 496.347 573.072 496.311 573.42H488.427C488.487 574.392 488.817 575.154 489.417 575.706C490.029 576.246 490.767 576.516 491.631 576.516C492.339 576.516 492.927 576.354 493.395 576.03C493.875 575.694 494.211 575.25 494.403 574.698H496.167C495.903 575.646 495.375 576.42 494.583 577.02C493.791 577.608 492.807 577.902 491.631 577.902C490.695 577.902 489.855 577.692 489.111 577.272C488.379 576.852 487.803 576.258 487.383 575.49C486.963 574.71 486.753 573.81 486.753 572.79C486.753 571.77 486.957 570.876 487.365 570.108C487.773 569.34 488.343 568.752 489.075 568.344C489.819 567.924 490.671 567.714 491.631 567.714C492.567 567.714 493.395 567.918 494.115 568.326C494.835 568.734 495.387 569.298 495.771 570.018C496.167 570.726 496.365 571.53 496.365 572.43ZM494.673 572.088C494.673 571.464 494.535 570.93 494.259 570.486C493.983 570.03 493.605 569.688 493.125 569.46C492.657 569.22 492.135 569.1 491.559 569.1C490.731 569.1 490.023 569.364 489.435 569.892C488.859 570.42 488.529 571.152 488.445 572.088H494.673ZM502.019 577.902C501.263 577.902 500.585 577.776 499.985 577.524C499.385 577.26 498.911 576.9 498.563 576.444C498.215 575.976 498.023 575.442 497.987 574.842H499.679C499.727 575.334 499.955 575.736 500.363 576.048C500.783 576.36 501.329 576.516 502.001 576.516C502.625 576.516 503.117 576.378 503.477 576.102C503.837 575.826 504.017 575.478 504.017 575.058C504.017 574.626 503.825 574.308 503.441 574.104C503.057 573.888 502.463 573.678 501.659 573.474C500.927 573.282 500.327 573.09 499.859 572.898C499.403 572.694 499.007 572.4 498.671 572.016C498.347 571.62 498.185 571.104 498.185 570.468C498.185 569.964 498.335 569.502 498.635 569.082C498.935 568.662 499.361 568.332 499.913 568.092C500.465 567.84 501.095 567.714 501.803 567.714C502.895 567.714 503.777 567.99 504.449 568.542C505.121 569.094 505.481 569.85 505.529 570.81H503.891C503.855 570.294 503.645 569.88 503.261 569.568C502.889 569.256 502.385 569.1 501.749 569.1C501.161 569.1 500.693 569.226 500.345 569.478C499.997 569.73 499.823 570.06 499.823 570.468C499.823 570.792 499.925 571.062 500.129 571.278C500.345 571.482 500.609 571.65 500.921 571.782C501.245 571.902 501.689 572.04 502.253 572.196C502.961 572.388 503.537 572.58 503.981 572.772C504.425 572.952 504.803 573.228 505.115 573.6C505.439 573.972 505.607 574.458 505.619 575.058C505.619 575.598 505.469 576.084 505.169 576.516C504.869 576.948 504.443 577.29 503.891 577.542C503.351 577.782 502.727 577.902 502.019 577.902ZM511.423 577.902C510.667 577.902 509.989 577.776 509.389 577.524C508.789 577.26 508.315 576.9 507.967 576.444C507.619 575.976 507.427 575.442 507.391 574.842H509.083C509.131 575.334 509.359 575.736 509.767 576.048C510.187 576.36 510.733 576.516 511.405 576.516C512.029 576.516 512.521 576.378 512.881 576.102C513.241 575.826 513.421 575.478 513.421 575.058C513.421 574.626 513.229 574.308 512.845 574.104C512.461 573.888 511.867 573.678 511.063 573.474C510.331 573.282 509.731 573.09 509.263 572.898C508.807 572.694 508.411 572.4 508.075 572.016C507.751 571.62 507.589 571.104 507.589 570.468C507.589 569.964 507.739 569.502 508.039 569.082C508.339 568.662 508.765 568.332 509.317 568.092C509.869 567.84 510.499 567.714 511.207 567.714C512.299 567.714 513.181 567.99 513.853 568.542C514.525 569.094 514.885 569.85 514.933 570.81H513.295C513.259 570.294 513.049 569.88 512.665 569.568C512.293 569.256 511.789 569.1 511.153 569.1C510.565 569.1 510.097 569.226 509.749 569.478C509.401 569.73 509.227 570.06 509.227 570.468C509.227 570.792 509.329 571.062 509.533 571.278C509.749 571.482 510.013 571.65 510.325 571.782C510.649 571.902 511.093 572.04 511.657 572.196C512.365 572.388 512.941 572.58 513.385 572.772C513.829 572.952 514.207 573.228 514.519 573.6C514.843 573.972 515.011 574.458 515.023 575.058C515.023 575.598 514.873 576.084 514.573 576.516C514.273 576.948 513.847 577.29 513.295 577.542C512.755 577.782 512.131 577.902 511.423 577.902ZM535.274 567.876L532.196 577.74H530.504L528.128 569.91L525.752 577.74H524.06L520.964 567.876H522.638L524.906 576.156L527.354 567.876H529.028L531.422 576.174L533.654 567.876H535.274ZM537.746 566.274C537.434 566.274 537.17 566.166 536.954 565.95C536.738 565.734 536.63 565.47 536.63 565.158C536.63 564.846 536.738 564.582 536.954 564.366C537.17 564.15 537.434 564.042 537.746 564.042C538.046 564.042 538.298 564.15 538.502 564.366C538.718 564.582 538.826 564.846 538.826 565.158C538.826 565.47 538.718 565.734 538.502 565.95C538.298 566.166 538.046 566.274 537.746 566.274ZM538.538 567.876V577.74H536.9V567.876H538.538ZM543.327 569.226V575.04C543.327 575.52 543.429 575.862 543.633 576.066C543.837 576.258 544.191 576.354 544.695 576.354H545.901V577.74H544.425C543.513 577.74 542.829 577.53 542.373 577.11C541.917 576.69 541.689 576 541.689 575.04V569.226H540.411V567.876H541.689V565.392H543.327V567.876H545.901V569.226H543.327ZM552.782 567.696C553.526 567.696 554.198 567.858 554.798 568.182C555.398 568.494 555.866 568.968 556.202 569.604C556.55 570.24 556.724 571.014 556.724 571.926V577.74H555.104V572.16C555.104 571.176 554.858 570.426 554.366 569.91C553.874 569.382 553.202 569.118 552.35 569.118C551.486 569.118 550.796 569.388 550.28 569.928C549.776 570.468 549.524 571.254 549.524 572.286V577.74H547.886V564.42H549.524V569.28C549.848 568.776 550.292 568.386 550.856 568.11C551.432 567.834 552.074 567.696 552.782 567.696ZM162.704 592.194V601.464C162.704 602.496 162.386 603.324 161.75 603.948C161.114 604.56 160.274 604.866 159.23 604.866C158.174 604.866 157.328 604.554 156.692 603.93C156.056 603.294 155.738 602.43 155.738 601.338H157.376C157.388 601.95 157.544 602.448 157.844 602.832C158.156 603.216 158.618 603.408 159.23 603.408C159.842 603.408 160.298 603.228 160.598 602.868C160.898 602.496 161.048 602.028 161.048 601.464V592.194H162.704ZM173.347 601.95H167.875L166.867 604.74H165.139L169.675 592.266H171.565L176.083 604.74H174.355L173.347 601.95ZM172.879 600.618L170.611 594.282L168.343 600.618H172.879ZM186.448 595.866C186.448 596.91 186.088 597.78 185.368 598.476C184.66 599.16 183.574 599.502 182.11 599.502H179.698V604.74H178.06V592.194H182.11C183.526 592.194 184.6 592.536 185.332 593.22C186.076 593.904 186.448 594.786 186.448 595.866ZM182.11 598.152C183.022 598.152 183.694 597.954 184.126 597.558C184.558 597.162 184.774 596.598 184.774 595.866C184.774 594.318 183.886 593.544 182.11 593.544H179.698V598.152H182.11ZM195.9 601.95H190.428L189.42 604.74H187.692L192.228 592.266H194.118L198.636 604.74H196.908L195.9 601.95ZM195.432 600.618L193.164 594.282L190.896 600.618H195.432Z" fill="white"/>
</g>
<defs>
<filter id="filter0_d_1686_674" x="-38" y="-13" width="796" height="1100" filterUnits="userSpaceOnUse" color-interpolation-filters="sRGB">
<feFlood flood-opacity="0" result="BackgroundImageFix"/>
<feColorMatrix in="SourceAlpha" type="matrix" values="0 0 0 0 0 0 0 0 0 0 0 0 0 0 0 0 0 0 127 0" result="hardAlpha"/>
<feMorphology radius="12" operator="erode" in="SourceAlpha" result="effect1_dropShadow_1686_674"/>
<feOffset dy="25"/>
<feGaussianBlur stdDeviation="25"/>
<feColorMatrix type="matrix" values="0 0 0 0 0 0 0 0 0 0 0 0 0 0 0 0 0 0 0.25 0"/>
<feBlend mode="normal" in2="BackgroundImageFix" result="effect1_dropShadow_1686_674"/>
<feBlend mode="normal" in="SourceGraphic" in2="effect1_dropShadow_1686_674" result="shape"/>
</filter>
<linearGradient id="paint0_linear_1686_674" x1="360" y1="0" x2="360" y2="1024" gradientUnits="userSpaceOnUse">
<stop stop-color="#BE97F6"/>
<stop offset="0.635417" stop-color="#7D30EE"/>
<stop offset="1" stop-color="#7D30EE"/>
</linearGradient>
</defs>
</svg>
