<svg width="106" height="30" viewBox="0 0 106 30" fill="none" xmlns="http://www.w3.org/2000/svg">
<path d="M19.08 0.919999V20.04C19.08 23 18.24 25.28 16.56 26.88C14.9067 28.48 12.6667 29.28 9.84 29.28C6.88 29.28 4.50667 28.44 2.72 26.76C0.933333 25.08 0.04 22.6933 0.04 19.6H6.84C6.84 20.7733 7.08 21.6667 7.56 22.28C8.04 22.8667 8.73333 23.16 9.64 23.16C10.4667 23.16 11.1067 22.8933 11.56 22.36C12.0133 21.8267 12.24 21.0533 12.24 20.04V0.919999H19.08ZM42.085 24.04H31.605L29.925 29H22.765L32.925 0.919999H40.845L51.005 29H43.765L42.085 24.04ZM40.325 18.76L36.845 8.48L33.405 18.76H40.325ZM75.4972 9.96C75.4972 11.5867 75.1239 13.08 74.3772 14.44C73.6305 15.7733 72.4839 16.8533 70.9372 17.68C69.3905 18.5067 67.4705 18.92 65.1772 18.92H60.9372V29H54.0972V0.919999H65.1772C67.4172 0.919999 69.3105 1.30667 70.8572 2.08C72.4039 2.85333 73.5639 3.92 74.3372 5.28C75.1105 6.64 75.4972 8.2 75.4972 9.96ZM64.6572 13.48C65.9639 13.48 66.9372 13.1733 67.5772 12.56C68.2172 11.9467 68.5372 11.08 68.5372 9.96C68.5372 8.84 68.2172 7.97333 67.5772 7.36C66.9372 6.74667 65.9639 6.44 64.6572 6.44H60.9372V13.48H64.6572ZM96.5381 24.04H86.0581L84.3781 29H77.2181L87.3781 0.919999H95.2981L105.458 29H98.2181L96.5381 24.04ZM94.7781 18.76L91.2981 8.48L87.8581 18.76H94.7781Z" fill="white"/>
</svg>
